<?xml version="1.0" encoding="UTF-8"?>
<svg version="1.1" viewBox="0 0 2048 752" width="606" height="452" xmlns="http://www.w3.org/2000/svg">
<path transform="translate(363,75)" d="m0 0h25l25 2 24 4 24 6 21 7 23 10 21 11 19 12 12 9 10 8 14 12 17 17 18 22 13 19 9 15 10 19 12 30 17 1v180l-13 1-8 23-10 23-11 21-11 17-10 14-11 13-1 5 3 11 9 20 1 5v9l-5 6-4 2 2 6v8l-4 5-6 3h-7l-2 8-6 6h-10l-7-4-6-6v9l-3 4-3 1h-9l-10-5-14-13-6-7v-2l-30 13-30 10-27 6-22 3-10 1h-41l-27-3-29-6-23-7-10-4-5 1-10 7-8 9-7 5h-46l-2-5v-3l-4 2h-7l-7-6-1-3v-9l4-9v-2l-5 3h-6l-5-5-1-3v-12l5-14 8-15-2-4-10-10-7-8-11-13-11-15-12-19-12-22-10-24-7-21-12-1v-180l16-1 9-24 12-24 13-21 10-14 8-10 11-13 22-22 11-9 13-10 15-10 19-11 25-12 24-9 26-7 22-4 16-2z" fill="#21221F"/>
<path transform="translate(1021,283)" d="m0 0 8 1 6 4 5 8 4 9 7 2v-6h5l6 7 10 21 3-1 6 5 5 8 3 4 5 10 1 4 3 6 1 5h3l10 21 1 6 3 3 2 5 8 16-1-7 3-6 2-1 9-1h23l6 3 7 8 6 3 1-3 24 3 7-1 4-2-2-1-25-3-10-4-19-9-6-5v-2l4 1-6-9-11-7-8-9-5-10-2-8v-22l4-14 6-9 5-6 17-11 11-4 13-2h25l15 4 14 7 10 8 6 8 5 7 4 2 1-2 4 2 10 17 5 10 1 8-3 6-3 2h-31l-9-7-5-5-6-3-4-1h-14l-7 3-7 6 7 1 4-3 7-2h13l6 3v4l-5 2 17 6 11 8 9 12 5 5h3l4 4 5 9 6 7 3 15 1 1 3-10 1-3 2 1 6-13 5-13 8-16 14-30 7-16 6-12 6-14 7-13 7-4 7-1 7 3 6 7 5 12 7 2v-5l5-1 5 4 12 25 2-3 5 4 6 9 3 4 5 10 3 4 1 6h2l-1 8 3 1 6 8 8 18 13 28 4 8v-90l1-52 3-6 5-2h16l5-1h8l6 4 2 3 1 17 7-1 1-3 6 1 6 7 1 2 1 16v90h6v-90l2-3h5l3 3 1 23v67h19l5 5 1 4 1 14 6 1 1-4 5-1 5 5 3 5-1 7 2-1 1 18-3 8-4 3h-97l-4-2-1-4-5-2-1-5 3-3h2v-6h-11l5 15 1 4v9l-6 8-3 2-8 1h-24l-3-2-3-9 31-1 5-5-2-10-5-12-6-13 2 7 2 13 2 6-1 7-6 2h-30l-7-4-9-3-3-4 1-4 2-2-5-4-45-1-14 1-6 4-7 11-4 4-7 2h-26l-5-1-4-4-12-3-2 4-5 4-14 9-11 4-10 2-10 1h-19l-13-3-14-7-3-3 10 1 7 2 8 1h22l17-4 15-7 11-8 8-9-6-2-9 9-19 11-20 5-9 1-21-1-12-3-14-5-4-4-1-3-7-3-9-8-4-6-9-7-5-5h-1l9 20 3 7 3 11 1 9-6 9-3 2-8 1h-24l-4-2-2-9 31-1 4-4-1-9-4-11-7-15 2 8 1 10 2 6v7l-1 2-5 1h-30l-11-5-7-3-2-5 4-4-6-4-44-1-15 1-7 6-7 11-5 3-10 1h-23l-5-3-1-2h-6l-1 15-2 4-5 2h-32l-2-2v-7l1-1h13l11-1 4-2 1-2v-23l-4-2v15l-3 6-3 3h-19l-4-2 2-2-17-1-1 2-4-4-2-1v-6l3-2 1-6h-14l-7-3-1-5h-8l-3-3 2-5 7-6 2-10-6 5-5 5-4 3h-7l-13-12-14-14-6-5h-2l-1 45v20l-4 5-5 2h-16l-11-1v-2l-6-2 1 3-3-1-4-4-2-1v-6l4-1v-7h-16l-4-2-3-5-1-66 1-98 2-4 4-2 9 1 9 7 11 11 7 8 15 15 4 5 8 7 9 11 8 7 7-4 15-16 7-8 16-16 7-8 9-10 9-8 6-2 7 1 4 5 1 22 4-3 4-7 5 1 8 10 1 133 3-4 1-2 1-57v-53l2-2 7-1 2 3v80l1 2 6-13 13-29 8-16 8-18 7-14 9-21 7-13 5-4zm-91 30v23l2-4 1-1v-18zm610 0v16l2-4-1-12zm-623 13m156 5 1 2zm344 1 1 2zm-223 6m-265 2m149 2 1 2zm344 1 1 2zm-343 1 1 2zm93 1m251 0 1 2zm-343 1 1 2zm93 1m251 0 1 2zm-343 1 1 2zm344 1 1 2zm7 0m-350 1 1 2zm344 1 1 2zm7 0m-350 1 1 2zm344 1 1 2zm-343 1 1 2zm344 1 1 2zm9 1m-352 1m344 1m9 0m-352 1m344 1m9 0m-352 1m344 1m-343 1m-63 2m339 1m-344 1m343 2m-344 1m343 1m-344 1m81 0m262 1m82 0m-426 1m83 0m344 1m-343 1 2 3v-3zm336 0m-343 1 2 6 3 7 1-3-5-10zm344 0 1 5 3 4-1-5zm7 0m-341 1m255 0m-344 1m431 0m-343 1m2 0m253 0m90 0m-434 1m433 0m-343 1m253 0 1 2zm92 0m-436 1 1 2zm435 0m2 1-1 2h2zm-94 1m-344 1m430 0 1 5 1-3zm-87 1m-491 2m236 1 1 2zm10 1m334 0 1 2zm-343 1 1 2zm344 1 1 2zm9 0 1 2zm-352 1 1 2zm344 1 1 2zm-343 1 1 2zm352 0-1 2 3 1-1-3zm-8 1 1 2zm-343 1 1 2zm344 1 1 2zm7 0m2 0m-352 1 1 2zm344 1 1 2zm-343 2m351 0m-7 1m-343 1m344 1m-343 1m344 1m-343 1m344 1m-343 1m344 1m1 2m-343 1m344 1 1 2zm-343 1 1 2zm344 1 1 2zm-343 1 1 2zm344 1 1 2zm-343 1 1 2zm67 0m277 1 1 2zm-343 1 1 2zm344 1 1 2zm-343 1 1 2zm344 1 1 2zm-343 1 1 2zm344 2m-343 1m344 2m-343 1m344 1m-338 11 1 2zm478 1 1 4zm-669 3m652 4m-1 3m5 1 1 3zm13 0v5h1v-5zm-652 5v5h10l2-5zm347 0-2 5h8l2-5zm-154 9 1 2zm1 3m186 1m-185 1m-371 3v1h6v-1zm185 0m14 0v1h7v-1z" fill="#FEFDFD"/>
<path transform="translate(469,260)" d="m0 0 7 6 10 11 7 11 6 9 9 16 7 15 7 22 4 19 1 8v44l-3 20-3 11v4l5-5 3-5 6-8h12l6 4 3 8v18l-5 15-8 13-6 5-4 2h-11l-4-2-1 6-5 13-9 11-13 10-15 8-20 8-21 6-23 5-7 1h-14l-30-6-29-8-25-10-15-8-9-5-10-8-10-9-3-8-3-11h-2l-7 6-9 2-6-2-7-5-6-9-6-13-3-7-1-13 2-8h3l2 1-1-7 4-2 11 21 6 8v2h2l-1-2v-9l5 5 4 8v10l1-1v-9l-8-13-2-2v-8l1-7 5 1 5 6-1-25v-19l10-24 9-17h1v5l1 1 1-5 7-11 7-8 10-6 9-3h18l13 4 5 2-4-12-5-8-3-3 39-13 28-11 19-8 6-3 2 1-10 7-17 9-19 8 17-4 24-8 21-10 15-10 10-9z" fill="#FCD1B5"/>
<path transform="translate(366,182)" d="m0 0h29l22 2 26 5 24 7 7 3 3-1 16 2 15 5 13 7 9 7 10 9 10 12 8 13 8 16 7 18-1 3-8-19-7-10-10-14-12-13-5-4 9 11 10 15 11 21 8 21 5 20 2 17v19l-3 20-5 18-2 5h-1l1-13v-15l-3-25v19l-3 20-6 21-12 25-5 8h9v1l-10 1-7 9-1 7-2-3-5 5 1-9 2-7 3-20v-44l-3-17-4-17-7-20-12-23-7-11-7-10-8-10-8-8-16 16-15 10-17 9-21 8-25 7-4-1 25-11 18-10 3-3-25 11-31 12-27 9-8 2 5 6 5 10 1 7-11-3-7-2h-18l-11 4-9 6-8 10-6 12-2-1v-4l-12 25-6 15v19l1 26-5-5-6-3v15l6 8 4 7v9l-2 3-2-1 1-1v-10l-6-11-1-1v10h-2l-10-15-8-15-3 1 2 9-5-4-8-11-7-11-8-16-6-20-2-13v-23l3-18 7-25 10-24 4-7h23l2-5 11-14 9-10v-2l-14 6-12 8-12 11v-3l4-7-8 8-9 12-10 15-8 15-3 8-1-4 7-21 8-16 3-1 2-5 9-12 9-10 9-9 16-12 17-10 23-11 33-11 17-4-29 6-19 5-3-1 18-8 22-7 26-5z" fill="#5B3932"/>
<path transform="translate(1806,283)" d="m0 0h25l15 4 9 4 12 8 7 7 6 10 5 3 4-2 12 20 4 7 1 12-4 5-2 1h-30l-6-4-7-5-1-4-11-3h-14l-10 5-4 5h7l4-3 8-2h12l6 3v4l-5 2 15 5 11 7 9 10 5 8 7 2 6 10 5 5 3 7 2 8v14l-2 11-4 10-9 10-9 7-15 8-24 5-23-1-10-2-16-6-8-7-6-4-3-4-3-3-4-5-9-7-8-7-6-9-1-2h-25l-1 13h7v-2l7-1 5 5 3 4v29l-4 5-3 1h-84l-14-1-3-2 1-2-6-1-4-4 2-5h2v-7h-14l-6-3-2-5-1-161 3-6 5-2 22-1h24l16 1 23-1 13 2 5 5 1 15 6 1 2-3h5l4 5 3 3 1 2 1 15v12l-5 6-2 1-46 1 19 1 6 3h27l4-3 1-20 5-17 8-10 8-7 13-8 14-4zm-65 29v11h2l1 4v-12h-2zm140 6m-221 11m156 10m-97 25v9h6l2-3h5l3 5 4 4 1 7v13l-1 9-2 3-7 1h-39l-7 2-4 6v1h10l5-2h40l8-2 3-5 1-4v-11l1-2 6-1 2 2 1 10 29 1 6 4 5 6 6 4 3-1-1-3 14 3 15 1 6-3 1-2-12-2-19-3-15-7-12-6-5-5 5 1-3-6-5-5-9-5-10-12-1-2z" fill="#FEFDFD"/>
<path transform="translate(1506,284)" d="m0 0h8l6 4 2 3 1 17 7-1 1-3 6 1 6 7 1 2 1 16v90h6v-90l2-3h5l3 3 1 23v67h19l5 5 1 4 1 14 6 1 1-4 5-1 5 5 3 5-1 7 2-1 1 18-3 8-4 3h-97l-4-2-1-4-5-2-1-5 3-3h2v-6h-11l5 15 1 4v9l-6 8-3 2-8 1h-24l-3-2-3-9 31-1 5-5-2-10-5-12-6-13 2 7 2 13 2 6-1 7-6 2h-30l-7-4-9-3-3-4 1-4 2-2-5-4-45-1-14 1-6 4-7 11-4 4-7 2h-26l-5-1-4-4-12-3-2 4-5 4-14 9-11 4-10 2-10 1h-19l-13-3-14-7-3-3 10 1 7 2 8 1h22l17-4 15-7 11-8 8-9-3-2 33-1 6-2 6-10 5-6 5-3h19l39 1 6 4 4 4 3 8 5 3 9 2h25l5-2 1-7-8-19-5-10-4-9-5-9-6-16-5-9-5-11-8-17-8-18-8-16-4-10v-2l6 1v-5l5-1 5 4 12 25 2-3 5 4 6 9 3 4 5 10 3 4 1 6h2l-1 8 3 1 6 8 8 18 13 28 4 8v-90l1-52 3-6 5-2h16zm34 29v16l2-4-1-12zm-123 19 1 2zm5 11 1 2zm1 2 1 2zm1 2 1 2zm1 2 1 2zm7 0m-6 2 1 2zm7 0m-6 2 1 2zm1 2 1 2zm9 1m-8 2m9 0m-8 2m9 0m-8 2m12 11m1 2m-7 1m1 1 1 5 3 4-1-5zm7 0m1 2m2 1m-1 1m2 1m-1 1m2 1-1 2h2zm-8 2 1 5 1-3zm2 5 1 2zm1 2 1 2zm9 0 1 2zm-8 2 1 2zm9 1-1 2 3 1-1-3zm-8 1 1 2zm1 2 1 2zm7 0m2 0m-8 2 1 2zm8 2m-7 1m1 2m1 2m1 2m1 2m1 2m1 2 1 2zm1 2 1 2zm1 2 1 2zm1 2 1 2zm1 2 1 2zm1 2 1 2zm1 3m1 3m1 2m140 12 1 4zm-17 7m-1 3m5 1 1 3zm13 0v5h1v-5zm-305 5-2 5h8l2-5z" fill="#FEFDFD"/>
<path transform="translate(746,285)" d="m0 0 9 1 9 7 11 11 7 8 15 15 4 5 8 7 9 11 8 7 7-4 15-16 7-8 16-16 7-8 9-10 9-8 6-2 7 1 4 5v163l-2 5-5 3h-31l-7-3-1-5h-8l-3-3 2-5 7-6 2-10-6 5-5 5-4 3h-7l-13-12-14-14-6-5h-2l-1 45v20l-4 5-5 2h-16l-11-1v-2l-6-2 1 3-3-1-4-4-2-1v-6l4-1v-7h-16l-4-2-3-5-1-66 1-98 2-4zm118 104m-88 90v1h6v-1z" fill="#FEFDFC"/>
<path transform="translate(1021,283)" d="m0 0 8 1 6 4 5 8 4 9 9 21 8 15 5 13 9 17 3 8 7 14 5 12 9 19 10 21 2 6v8l-6 3h-26l-9-2-7-7-3-7-8-5-39-1h-18l-6 4-4 5-6 9-8 4h-19v5h24l6-4 4-5 3-7 4-4 5-1 22-1h27l7 4-1 5-5 2-28 1h-15l-6 2-2 4h-2l-2 8-2 3-8 4-31 1-1 15-2 4-5 2h-32l-2-2v-7l1-1h13l11-1 4-2 1-2v-23l-4-2v15l-3 6-3 3h-19l-4-2 2-2-17-1-1 2-4-4-2-1v-6l3-2 1-6 17-1 5-3 1-4 1-140 5-4 4-7 5 1 8 10 1 133 3-4 1-2 1-57v-53l2-2 7-1 2 3v80l1 2 6-13 13-29 8-16 8-18 7-14 9-21 7-13 5-4zm-91 30v23l2-4 1-1v-18zm-13 13m12 14m96 25m-5 2m-1 3m-1 2m-1 2m-2 5m-1 2m-1 2 1 2z" fill="#FEFDFD"/>
<path transform="translate(1640,284)" d="m0 0h26l16 1 23-1 13 2 5 5 1 15 6 1 2-3h5l4 5 3 3 1 2 1 15v12l-5 6-2 1-46 1 19 1 5 3 2 6v14h6l2-4h5l3 4v2l4 2 2 4v18l-1 9-3 4-7 1h-39l-7 2-3 5 39 1 5 4 2 5-1 13h7v-2l7-1 5 5 3 4v29l-4 5-3 1h-84l-14-1-3-2 1-2-6-1-4-4 2-5h2v-7h-14l-6-3-2-5-1-161 3-6 5-2zm101 28v11h2l1 4v-12h-2z" fill="#FDFDFD"/>
<path transform="translate(205,279)" d="m0 0h245l-5 4-13 8-17 8-24 8-15 4-4-1 25-11 18-10 3-3-25 11-31 12-27 9-8 2 5 6 5 10 1 7-11-3-7-2h-18l-11 4-9 6-8 10-6 12-2-1v-4l-12 25-6 15v19l1 26-5-5-6-3v15l6 8 4 7v9l-2 3-2-1 1-1v-10l-6-11-1-1v10h-2l-10-15-8-15-3 1 2 9-5-4-8-11-7-11-8-16-6-20-2-13v-23l3-18 7-25 10-24z" fill="#A7420A"/>
<path transform="translate(1365,283)" d="m0 0 8 1 7 6 6 12 11 25 8 16 14 30 3 7 7 14 5 12 7 14 4 9 7 15 3 8-1 7-6 3h-25l-11-3-4-3-3-10-4-2-5-3-39-1h-19l-8 6-5 9-3 4-6 2h-35l-2-3v-7l13-29 1-8 3 1 6-13 5-13 8-16 14-30 7-16 6-12 6-14 7-13 7-4zm-1 83m-1 3m-1 2m-1 2m-2 5m-1 2m-1 2 1 2z" fill="#FEFDFD"/>
<path transform="translate(546,512)" d="m0 0 4 2 11 11 8 10 2 4v9l-6 10 7-5 3-1h17l9 3 10 4-1 4-8 9 1 8 3 10 8 17 1 5v9l-5 6-4 2 2 6v8l-4 5-6 3h-7l-2 8-6 6h-10l-7-4-6-6v9l-3 4-3 1h-9l-10-5-14-13-6-7v-2l-4-2-10-11-6-3h-3l-6-8-1 6h2l-1 9h3l-1 4 2 1-1 5-8 6 1 4-3 3-6-1-6-4-1-3h-2l-2-8 6-17 1-4-5 1h-14l-9-5-6-9-1-3v-13l5-8 7-6 8-3h11l8 3 5 4 5 9 2 11h2l4-5h2l-8-14-9-14 4-4 18-11 6-2h10l8 4 6 7 3 7v5l5-1 5-7-10-9-15-15 6-7 4-2 19 19 2 1h7l3-3v-7l-6-8-13-13 2-4z" fill="#C4937D"/>
<path transform="translate(75,279)" d="m0 0h95l-3 9-6 15-6 22-4 22-1 9v41l4 24 5 21 5 14v4h-27l1 4v7l-10-5-4-1-10 6h-2l2-11h-27l-12-1z" fill="#FDFCFC"/>
<path transform="translate(659,278)" d="m0 0 18 1v180l-13 1h-27l1 11-6-2-5-3-6 1-8 4-1-4 1-7h-25l2-9 6-19 4-20 2-12v-47l-3-20-4-16-4-15-5-12-4-9v-2z" fill="#FDFCFC"/>
<path transform="translate(302,337)" d="m0 0h18v1l-7 2-8 6-7 8-4 7 19 1 16 7 12 8 8 10 5 11 3 15v8l-1 5-1 14-2 1-1-22-4-13-6-10-5-5-7-5-9-3h-19l-10 3-8 6-6 10-4 13-1 6v11l3 9h2l6 8 8 4 12 3 15 1h12l8 6 6 7-2 4-5 9-4 4-18 6-9 1-14-3-9-4-6-4-8-6 2 16 8 17 10 14 11 13 5 5v2l-6-2-13-7-14-10-11-10-3-8-3-11h-2l-7 6-9 2-6-2-7-5-6-9-6-13-3-7-1-13 2-8h3l2 1-1-7 4-2 11 21 6 8v2h2l-1-2v-9l5 5 4 8v10l1-1v-9l-8-13-2-2v-8l1-7 5 1 5 6-1-25v-19l10-24 9-17h1v5l1 1 1-5 7-11 7-8 10-6z" fill="#FDBB9F"/>
<path transform="translate(417,279)" d="m0 0h33l-5 4-13 8-17 8-24 8-15 4-4-1 25-11 18-10 3-3-25 11-31 12-27 9-8 2 5 6 5 10 1 7-11-3-7-2h-18l-11 4-9 6-8 10-6 12-2-1v-4l-12 25-6 15v19l1 26-5-5-6-3v15l6 8 4 7v9l-2 3-2-1 1-1v-10l-6-11-1-1v10h-2l-10-15-8-15-3 1 2 9-5-4-8-11-7-11-8-16-6-20-2-13v-23l1-8h2l1 19 1 7 4-27 5-17 7-14 1 2-4 11-3 12-2 16v20l2 15v-13l3-19 5-16 7-16 10-17 11-14 9-10 2-1-2 5-9 17-7 18-6 23-2 10-1 11v16l5-16 6-15 3-3-4 21-2 20v19l2 18 3 10 3-23 5-19 7-16 9-16 10-13 12-13 14-12 3-2-9 3-10 6-6 6-2-1 9-10 8-6 10-5 40-10 33-11 25-10 3-1v2l-15 9-23 11-4 2 29-10 20-9z" fill="#932D06"/>
<path transform="translate(1051,301)" d="m0 0h5l6 7 10 21 3-1 6 5 5 8 3 4 5 10 1 4 3 6 1 5h3l10 21 1 6 3 3 2 5 8 17 9 17 2 5 8 18 3 7 3 11 1 9-6 9-3 2-8 1h-24l-4-2-2-9 31-1 4-4-1-9-4-11-7-15 2 8 1 10 2 6v7l-1 2-5 1h-30l-11-5-7-3-2-5 4-4-6-4-44-1-15 1-7 6-7 11-5 3-10 1h-23l-5-3-1-3 25-1 5-3h3l3-9 5-6 6-3h22l21-1 5-2 1-4-4-2-3-1h-27l-22 1-6 2-3 3-3 8-8 7-2 1h-14l1-5 1-1 9-2 6-3 7-11 7-6 2-1h18l39 1 8 5 3 4 2 5 5 5 9 2h26l5-2v-8l-6-15-7-14-9-19-6-15-6-10-4-11-8-16-7-16-8-15-5-14 7 1zm22 30 1 2zm5 11 1 2zm1 2 1 2zm1 2 1 2zm1 2 1 2zm1 2 1 2zm1 2 1 2zm1 2 1 2zm1 3m1 2m1 2m1 2m11 9m1 2m1 2 2 3v-3zm-7 1 2 6 3 7 1-3-5-10zm10 1m-1 2m2 0m-1 2m-4 8 1 2zm10 1m-9 1 1 2zm1 2 1 2zm1 2 1 2zm1 2 1 2zm1 2 1 2zm1 3m1 2m1 2m1 2m1 2m2 4m1 2 1 2zm1 2 1 2zm1 2 1 2zm1 2 1 2zm1 2 1 2zm1 2 1 2zm1 3m1 3m6 12 1 2zm19 26 1 2zm1 3m1 2m-186 3m14 0v1h7v-1z" fill="#FEFAFA"/>
<path transform="translate(488,279)" d="m0 0h72l5 10 7 24 2 11 1 11v19l-3 20-5 18-2 5h-1l1-13v-15l-3-25v19l-3 20-6 21-12 25-5 8h9v1l-10 1-7 9-1 7-2-3-5 5 1-9 2-7 3-20v-44l-3-17-4-17-7-20-12-23-7-11-6-9z" fill="#A7420A"/>
<path transform="translate(210,522)" d="m0 0h5l7 7-1 8-6 16-2 6 1 5 2 4v4l5-2 2 4 6 1 6 4 4 3-3-6-9-10-1-2v-9l5-6 3-2h9l9 4 8 7 4 5-5 5-4 1-7-8-4-2h-4l1 6 8 8 3 5v8l-5 6 7 4 2-6 8-16 6-11 11 5-3 9-11 23-2 6 1 5h-3l-3 5-4 10-9 12-9 7-3 2h-11l-4 1-1 2-5-2-3-3 1-9 6-7 1-3-9 1v2l-7-1-2-2-2-5-5-5 2-8h2l-1-4-5 7h-4v2l-5-1-9-5-2-6v-11l5-2 4-17 4-7 2-5 5-4 7-1 3-6 2-1 4-11-7 3v7l-1-2-8 6-7 3-7-1v-3l-3-1v-2l-6-5v-2l37-15z" fill="#C6937D"/>
<path transform="translate(393,212)" d="m0 0h11l21 2 15 4 8 4 5 6-1 6-7 8-10 7-21 10-33 11-21 5-10 2 29 1v1h-102v-1l9-1 25-13 28-10 28-7 2-1-8-1h-26l-20 2 2-2 15-5 17-3-24 1-24 4-18 5-21 9-8 5-2-1 11-9 16-9 19-8 19-6 31-7 11-2-20 2-27 4h-5l4-2 25-5 38-5z" fill="#71473D"/>
<path transform="translate(206,536)" d="m0 0h2l-1 5-3 8h-2l-3 6-9 2-3 3-3 7-3 9-3 12-3 2h-3l2 17 5 2 9 4v-2l5-2 4-6h1v5h-2l-1 8 5 5 3 6 5 1 2 1v-2l9-1-1 5-5 5-1 9 5 4 2 1 1-3 6-1h9l11-8 9-12 5-12 5-5 1 4-1 1 9 6 3 5 2 7 2 11v10l-1 5-3-1-1-8 2-7-1-5-1-3-5 10-7 10-12 8-12 12-4 3h-46l-2-5v-3l-4 2h-7l-7-6-1-3v-9l4-9v-2l-5 3h-6l-5-5-1-3v-12l5-14 8-15-2-4-10-10-7-8-9-11 3-7h2l1-5h2l2-4 2-1 24-1-1 3 2 1v3h8l9-5 3-3h2v-5z" fill="#B67960"/>
<path transform="translate(575,552)" d="m0 0h17l9 3 10 4-1 4-8 9 1 8 3 10 8 17 1 5v9l-5 6-4 2 2 6v8l-4 5-6 3h-7l-2 8-6 6h-10l-7-4-6-6v9l-3 4-3 1h-9l-10-5-14-13-6-7v-2l-3-1v-1l15 1 7-6 1-6-2-6-1-2 6 2 2 2 5-1 7-3 5-3 1-5-1-8-2-5 7 6 6 11 4 2 9-1-1-11 4-7-2-9-7-14-8-10-5-4-1-6 5 1 6-5z" fill="#B6795F"/>
<path transform="translate(1388,306)" d="m0 0 7 1 5 12 8 16 4 11 8 16 5 12 5 10 9 19 5 12 7 13 5 13 3 5 3 11v6l-5 5h-32l-6-5-45-1-14 1-6 4-7 11-4 4-7 2h-26l-5-1-4-4-12-3-2 4-5 4-14 9-11 4-10 2-10 1h-19l-13-3-14-7-3-3 10 1 7 2 8 1h22l17-4 15-7 11-8 8-9-3-2 33-1 6-2 6-10 5-6 5-3h19l39 1 6 4 4 4 3 8 5 3 9 2h25l5-2 1-7-8-19-5-10-4-9-5-9-6-16-5-9-5-11-8-17-8-18-8-16-4-10zm-89 156-2 5h8l2-5z" fill="#FE6564"/>
<path transform="translate(463,362)" d="m0 0h16l11 4 10 9 5 8 2 9 5-1-1 4-3 5h7l-3 6-5 4h6l-2 5h1v12l-4 13-6 9-4 3 11 6 2 3-8 16-8 8-12 6-16 2-10-2-16-8-7-6-4-6 1-4 5-5 7-5h14l18-2 12-4 6-5 4-8 2-5h2v-12l-3-14-7-14-7-6-12-4h-19l-11 4-9 7-7 12-3 9-1 7-1 18h-2l-1-12v-17l3-14 6-12 9-10 10-7 12-5z" fill="#FEBEA2"/>
<path transform="translate(1395,301)" d="m0 0 6 1 4 5 11 23 2-3 5 4 6 9 3 4 5 10 3 4 1 6h2l-1 8 3 1 6 8 8 18 13 28 4 8v2h2l1 19 1 3 9 3 5 15 1 4v9l-6 8-3 2-8 1h-24l-3-2-3-9 31-1 5-5-2-10-5-12-6-13 2 7 2 13 2 6-1 7-6 2h-30l-7-4-9-3-3-4 1-4 1-1 7-1h27l4-4-1-9-3-9-6-13-3-7-6-12-4-10-9-19-7-14-4-11-8-15-5-13-8-16-3-8v-5zm22 31 1 2zm5 11 1 2zm1 2 1 2zm1 2 1 2zm1 2 1 2zm7 0m-6 2 1 2zm7 0m-6 2 1 2zm1 2 1 2zm9 1m-8 2m9 0m-8 2m9 0m-8 2m12 11m1 2m-7 1m1 1 1 5 3 4-1-5zm7 0m1 2m2 1m-1 1m2 1m-1 1m2 1-1 2h2zm-8 2 1 5 1-3zm2 5 1 2zm1 2 1 2zm9 0 1 2zm-8 2 1 2zm9 1-1 2 3 1-1-3zm-8 1 1 2zm1 2 1 2zm7 0m2 0m-8 2 1 2zm8 2m-7 1m1 2m1 2m1 2m1 2m1 2m1 2 1 2zm1 2 1 2zm1 2 1 2zm1 2 1 2zm1 2 1 2zm1 2 1 2z" fill="#FEFAF9"/>
<path transform="translate(475,198)" d="m0 0 18 2 15 5 13 7 9 7 10 9 10 12 8 13 8 16 7 18-1 3-8-19-7-10-10-14-12-13-5-4 9 11 10 15 11 21v2h-64l4-2-11-12-4-4-1-37-4-13-5-9z" fill="#5B3932"/>
<path transform="translate(922,303)" d="m0 0 5 1 8 10 1 157-1 7-5 6h-19l-4-2 2-2-17-1-1 2-4-4-2-1v-6l3-2 1-6 17-1 5-3 1-4 1-140 5-4zm8 10v23l2-4 1-1v-18z" fill="#FEF8F7"/>
<path transform="translate(1887,389)" d="m0 0 4 2 5 1 6 10 5 5 3 7 2 8v14l-2 11-4 10-9 10-9 7-15 8-24 5-23-1-10-2-16-6-8-7-6-4-3-4-3-3v-3l9 2 8 3 6 1h28l10-2 13-4 12-7h3v-2l6-4 8-9 5-13 1-16z" fill="#FE6463"/>
<path transform="translate(1264,389)" d="m0 0 6 3h3l7 12 6 7 3 15-1 7-8 18v10l-9 9-19 11-20 5-9 1-21-1-12-3-14-5-4-4-1-3-7-3-9-8-2-5 10 3 10 4 7 1h30l21-6 15-9 3-1 7-8h2v-3h2l1-5 3-7 1-4v-21z" fill="#FE6564"/>
<path transform="translate(488,279)" d="m0 0h8l10 13 9 14 9 17 7 19 5 21 1 10 1 27 5-25 1-26 2 3 1 6v32l5-27 1-13v-30l-2-21 3 3 8 19 6 20 2 12 3-8 2 3-1 15-5 23-4 11h-1l1-13v-15l-3-25v19l-3 20-6 21-12 25-5 8h9v1l-10 1-7 9-1 7-2-3-5 5 1-9 2-7 3-20v-44l-3-17-4-17-7-20-12-23-7-11-6-9z" fill="#942D07"/>
<path transform="translate(458,386)" d="m0 0 11 2 9 5 7 8 5 13v13l-5 13-8 9-7 4-9 2-10-1-10-5-8-8-4-9-1-5v-14l4-11 9-10 6-4z" fill="#18264A"/>
<path transform="translate(314,386)" d="m0 0 12 2 8 5 8 9 3 7 1 5v15l-4 10-9 10-10 5-10 1-9-2-9-6-6-7-4-9-1-6v-9l3-11 6-9 6-5 9-4z" fill="#18264A"/>
<path transform="translate(302,337)" d="m0 0h18v1l-7 2-8 6-7 8-4 7 19 1 16 7 12 8 8 10 5 11 3 15v8l-1 5-1 14-2 1-1-22-4-13-6-10-5-5-7-5-9-3h-19l-10 3-8 6-6 10-4 13-2 14-2-1-2-10-5-3-2-4 5-1-6-7-1-3h7l-4-7v-2h4v-14l-9 10-3 3 3-9 9-17h1v5l1 1 1-5 7-11 7-8 10-6z" fill="#EEA37E"/>
<path transform="translate(1735,440)" d="m0 0h5l5 5 3 4v29l-4 5-3 1h-84l-14-1-3-2 1-2-6-1-4-4 2-5h2v-7l8-1h66l12-1 3-3 1-3 1-11h7v-2z" fill="#FEF9F7"/>
<path transform="translate(454,573)" d="m0 0h11l8 3 5 4 5 9 2 11 1 2-1 7v6l6 2 5 6 14 9v6l-5-5-7-6h-4l-5-5-3-4-1 6h2l-1 9h3l-1 4 2 1-1 5-8 6 1 4-3 3-6-1-6-4-1-3h-2l-2-8 6-17 1-4-5 1h-14l-9-5-6-9-1-3v-13l5-8 7-6z" fill="#C2917B"/>
<path transform="translate(1044,306)" d="m0 0 7 1 8 16 5 11 4 11 9 17 4 11 4 7 4 10 8 15 4 11 6 11 5 13 3 5 4 16-3 5-3 2h-31l-7-5-44-1-15 1-7 6-7 11-5 3-10 1h-23l-5-3-1-3 25-1 5-3h3l3-9 5-6 6-3h22l21-1 5-2 1-4-4-2-3-1h-27l-22 1-6 2-3 3-3 8-8 7-2 1h-14l1-5 1-1 9-2 6-3 7-11 7-6 2-1h18l39 1 8 5 3 4 2 5 5 5 9 2h26l5-2v-8l-6-15-7-14-9-19-6-15-6-10-4-11-8-16-7-16-8-15zm-83 173m14 0v1h7v-1z" fill="#FE6564"/>
<path transform="translate(469,260)" d="m0 0 7 6 10 11 7 11 6 9 9 16 7 15 7 22 4 19 1 8v11l-4-4-6-14-7-26-6-27-4-11-6-10-9-10-7-4h-7l-38 19-24 10-17 5-11 2h-14l1-3-10 3-23 10h-3l-3-5-3-3 39-13 28-11 19-8 6-3 2 1-10 7-17 9-19 8 17-4 24-8 21-10 15-10 10-9z" fill="#FCBCA0"/>
<path transform="translate(1531,304)" d="m0 0 6 1 6 7 1 2 1 16v91h-17l-4-3-1-3-1-100 1-7 7-1zm9 9v16l2-4-1-12z" fill="#FE6362"/>
<path transform="translate(789,389)" d="m0 0 5 2 1 3h2l7 8 8 8-2 2-1 45v20l-4 5-5 2h-16l-11-1v-2l-6-2 1 3-3-1-4-4-2-1v-6l4-1v-7l2-1 14-1 6-4 1-1v-31l1-33zm-13 90v1h6v-1z" fill="#FE6665"/>
<path transform="translate(1727,369)" d="m0 0h5l3 4v2l4 2 2 4v18l-1 9-3 4-7 1h-39l-7 2-4 6h-17v-2l-4-2-1-3v-17l4-5 3-2h20l31-1 1-3 1-14 7 1z" fill="#FE6866"/>
<path transform="translate(435,488)" d="m0 0h2l-3 9-6 12-9 11-8 7-12 6-4 1h-12l-10-4-10-7-9-9-8-14-4-9v-2l7 2 10 4 15 3h25l18-4z" fill="#613B30"/>
<path transform="translate(1732,304)" d="m0 0h5l4 5 3 3 1 2 1 15v12l-5 6-2 1-46 1-7 1h-19l-7-2-2-6v-9l3-6 12-2h42l5-1 2-4 1-13h7zm9 8v11h2l1 4v-12h-2z" fill="#FE6564"/>
<path transform="translate(234,547)" d="m0 0h9l9 4 8 7 4 5-5 5-4 1-7-8-4-2h-4l1 6 8 8 3 5v8l-5 6 7 4 2-6 8-16 6-11 11 5-3 9-11 23-3 5-4-2-1 5-3 7-3 10-6 8-6 4h-10l-4-4v-2l-5 1v-6l2-1 6-13 3-6 3-1 2-5 4-6v-2l-5-15-7-7-4-6v-9l5-6z" fill="#DDB6A4"/>
<path transform="translate(206,536)" d="m0 0h2l-1 5-3 8h-2l-3 6-9 2-3 3-3 7-3 9-3 12-3 2h-3l2 17 5 2 9 4v-2l5-2 4-6h1v5h-2l-1 6-3 3h-2l-6 5-5-1-11-1-3 3 9 1 1 1v7l-2 4-6 3-5 1-3-3-1-6h-2l1-10 7-16 5-9-2-4-10-10-7-8-9-11 3-7h2l1-5h2l2-4 2-1 24-1-1 3 2 1v3h8l9-5 3-3h2v-5z" fill="#B67A62"/>
<path transform="translate(285,450)" d="m0 0 10 4 9 2 15 1h12l8 6 6 7-2 4-5 9-4 4-18 6-9 1-14-3-9-4-6-4-8-6 1-5 2-5-2-4 1-2h8l-3-5v-3z" fill="#FEBDA2"/>
<path transform="translate(475,202)" d="m0 0 3 3 5 11 2 8 1 37 12 12 3 5-14 2-9-11-8-8-16 16-3 2h-32l-35-1 4-2 36-12 18-8 17-10 8-8 10-14-1-13z" fill="#2A1C19"/>
<path transform="translate(1599,439)" d="m0 0 7 6 2 4-1 7 2-1 1 18-3 8-4 3h-97l-4-2-1-4-5-2-1-5 3-3 88-1 5-5 1-2 2-18 1-2zm5 7 1 4zm0 11v5h1v-5z" fill="#FEFDFD"/>
<path transform="translate(463,362)" d="m0 0h16l11 4 10 9 5 8 2 9 5-1-1 4-3 5h7l-3 6-5 4h6l-2 4-3 3h-3l-1 11-2 1-3-19-5-12-6-8-6-4-10-3h-19l-11 4-9 7-7 12-3 9-1 7-1 18h-2l-1-12v-17l3-14 6-12 9-10 10-7 12-5z" fill="#E89E7B"/>
<path transform="translate(305,279)" d="m0 0h73l-4 2-47 11-19 7-16 8-14 10-12 11-10 12-9 15-8 19-5 19h-1v-10l3-21 6-18 8-15 8-11 9-10 12-12 14-10z" fill="#BC601C"/>
<path transform="translate(366,182)" d="m0 0h29l2 2-28 1-26 3-3 1h41l21 2v1l-43 4-25 4 10-1h31l16 1v1l-41 3-32 5-27 7-22 8-24 11-20 12-11 8-4 3 2-4 12-12 16-12 17-10 23-11 33-11 17-4-29 6-19 5-3-1 18-8 22-7 26-5z" fill="#70463C"/>
<path transform="translate(1074,328)" d="m0 0 5 3 7 10 3 4 5 10 1 4 3 6 1 5h3l10 21 1 6 3 3 2 5 8 17 9 17 2 5 8 18 3 7 3 11 1 9-6 9-3 2-8 1h-24l-4-2-2-9 31-1 4-4-1-9-4-11-9-20-7-15-11-23-9-20-10-21-9-20-6-12-1-5zm25 44m1 2m1 2 2 3v-3zm3 2m-1 2m2 0m-1 2m6 9m35 80 1 2z" fill="#FE6463"/>
<path transform="translate(1020,445)" d="m0 0h27l7 4-1 5-5 2-28 1h-15l-6 2-2 4h-2l-2 8-2 3-8 4-31 1-1 15-2 4-5 2h-32l-2-2v-7l1-1h13l11-1 4-2 1-2v-24h15l-3 1v5h24l6-4 4-5 3-7 4-4 5-1z" fill="#FEF9F9"/>
<path transform="translate(1417,327)" d="m0 0 6 4 6 9 3 4 5 10 3 4 1 6h2l-1 8 3 1 6 8 8 18 13 28 4 8v2h2l1 19 1 3 9 3 5 15 1 4v9l-6 8-3 2-8 1h-24l-3-2-3-9 31-1 5-5-2-10-5-12-7-16-7-14-5-12-14-29-6-14-6-12-8-18-6-12zm15 22m1 2m4 5m1 2m1 2m4 13m1 2m1 2m1 2m2 1m-1 1m2 1m-1 1m2 1-1 2h2zm4 9 1 2zm1 3-1 2 3 1-1-3z" fill="#FE6463"/>
<path transform="translate(218,439)" d="m0 0 3 4 9 17 6 8v2h2l-1-2v-9l5 5 4 8v10l1-1v-9l-8-13-2-2v-8l1-7 5 1 5 6 2 1 2 20 2 7 2 14-2 5-7 6-9 2-6-2-7-5-6-9-6-13-3-7-1-13 2-8h3l2 1-1-7z" fill="#F7AFA8"/>
<path transform="translate(1258,317)" d="m0 0 4 2 1-2 4 2 10 17 5 10 1 8-3 6-3 2h-31l-9-7-5-5-6-3-4-1h-14l-7 3-8 7-9-1-3-3 4-6 9-7v-2l14-1 1-5 5-1 7 7 3 2h17l14 1v-2l4-1v-10l-2-9z" fill="#FEF7F7"/>
<path transform="translate(1887,317)" d="m0 0h2l12 20 4 7 1 12-4 5-2 1h-30l-6-4-7-5-1-4-11-3h-14l-10 5-4 5h-6l-6-2-1-3 9-9 7-5h11v-2h2v-4l5-1 5 6 4 3h33v-2l2-1v-10l-1-7 5-1z" fill="#FEF7F7"/>
<path transform="translate(535,438)" d="m0 0h12l6 4 3 8v18l-5 15-8 13-6 5-4 2h-11l-4-2-1 3 1-7 4-19 3-23h2v-7z" fill="#FDBCA1"/>
<path transform="translate(575,552)" d="m0 0h17l9 3 10 4-1 4-8 9v16l3 9-1 10-4 2-5-5-7-8 2 14-3 10-4 10-2 4-7-7-6-9 7 1 6-1-1-11 4-7-2-9-7-14-8-10-5-4-1-6 5 1 6-5z" fill="#B67A62"/>
<path transform="translate(502,279)" d="m0 0h39l3 8 4 20 2 22v28l-2-3-4-17-6-16-2-3 3 22v22h-1l-6-26-7-19-11-21-12-16z" fill="#BC601B"/>
<path transform="translate(251,114)" d="m0 0h5l11 23 9 19-8 4-3-1-10-21-3 24-3 2-5-1-17-11 1 4 9 17-1 3-6 3h-3l-20-40v-3l6-3 4 1 18 11 9 6v-12l2-22z" fill="#FCF8F6"/>
<path transform="translate(601,579)" d="m0 0 2 1 3 10 8 17 1 5v9l-5 6-4 2 2 6v8l-4 5-6 3h-7l-2 8-5 5h-2l2-4 2-3-1-7-3-2v-2l-3-1h-7l-4 8-4-4 1-5 3-5 2-2 1-9-4-6 1-4 11 13 2 2 5-13 3-10-2-15 5 5 5 6 5 2 2-5-1-9-2-6z" fill="#7C4C3F"/>
<path transform="translate(286,572)" d="m0 0 9 2 10 3 10 5 4 5 2 4-1 10-4 6-5 3h-3l4 17-11-3-3-3-3-9v-3l-7-2-2 9-1 2-9-2-3-1 1-7z" fill="#FBF8F6"/>
<path transform="translate(405,586)" d="m0 0h13l8 5 4 7v7l-3 7-3 4 10 10v2l-5 1h-9l-7-7-1-2h-6v12l-13 1-5-33-1-11 10-2z" fill="#FBF8F6"/>
<path transform="translate(501,562)" d="m0 0h10l5 4 2 4v7l4-3 6 2 3 3 1 2 6-2 1 3 4 4 7 11 2 13-1 2-7 2-3 5-4 2-8-7-5-6-5-8-5-4-2-2h-2l-1-7-5 1-11-18v-3z" fill="#DDB7A5"/>
<path transform="translate(632,348)" d="m0 0h2l7 16 2 2 18 2v3l-12 11-1 4 3 14v3l-6-2-10-6-6 1-12 7h-2l1-9 1-5v-7l-11-10-2-1v20h-1v-30h1l1 7 17-2 3-3z" fill="#F0BD52"/>
<path transform="translate(1271,391)" d="m0 0 4 4 5 11v26l-4 11-2 4-2 1-1 3h-2v2h-2v3h-2v2l-13 8-1 2-11 5-15 4-10 1h-20l-12-3-8-4-9-5v-1h7l12 3h31l14-3 16-8h2v-2l10-7 8-11 5-13 1-9v-17z" fill="#FEF7F6"/>
<path transform="translate(1894,391)" d="m0 0 5 5 3 6 1 6v25l-3 9h-2l-2 7-3 2-1 3h-2v2l-2 1-1 3-10 5-4 3h-2v2l-13 5-19 3h-20l-13-3-8-4-8-5v-1l12 1 6 2h31l14-3 11-5 7-4 7-5 5-5 7-11 5-11v-27z" fill="#FEF7F7"/>
<path transform="translate(344,587)" d="m0 0 24 1 7 2 7 6 2 4v10l-4 6-5 4-2 1h-18v12l-13-1 1-35z" fill="#FBF8F7"/>
<path transform="translate(117,347)" d="m0 0 2 1 7 16 3 2 18 2-6 7-7 6-1 5 3 14v3l-5-2-11-6-7 1-12 7-2-1 3-14v-6l-8-8-6-5v-1l18-2 3-1z" fill="#F1BD50"/>
<path transform="translate(1917,414)" d="m0 0 4 5 4 9 1 10v12l-3 12-6 10-8 10-20 12-13 4-15 2h-20l-12-3-16-8-1-2 9 1 7 2 17 1h13l18-4 16-8 9-7 8-8 7-15 1-3z" fill="#FE6362"/>
<path transform="translate(1756,464)" d="m0 0h7l1 2v28l-4 5-6 2-22-1h-74l-2-2v-6l2-2 18-1h70l6-2 1-3 1-18z" fill="#FE6261"/>
<path transform="translate(1618,463)" d="m0 0h5l3 4v26l-4 6-3 1-94 1-5-3 1-7 1-1 86-1 5-4 2-13 2-8z" fill="#FE6362"/>
<path transform="translate(863,388)" d="m0 0h3l1 2v30l-1 10-7 8-7 5h-7l-13-12-9-9v-1l9-1v-2l8-7 4-5h2l2-4 6-5 7-8z" fill="#FE6564"/>
<path transform="translate(293,101)" d="m0 0h3l10 13 11 13 10 13v2l-7 2-5-1-4-5v-2l-17 5h-5l-1 11-7 3h-4v-8l7-43z" fill="#FBF7F5"/>
<path transform="translate(455,316)" d="m0 0h14l13 5 10 8 7 9 5 10 3 11v10l-3-4-7-11-5-6-11-7-9-3h-18l-13 4-5 1 1-8 5-9 4-5z" fill="#B75D1C"/>
<path transform="translate(385,92)" d="m0 0h12l3 5 16 41v3l-12-1-3-9-5-1-18-1-3 9h-12l2-6 10-20 9-17z" fill="#FAF7F5"/>
<path transform="translate(177,476)" d="m0 0 5 5 3 4v2l-13 9 16 3 7 1 8 11v1l-12-1-15-2-4 16-4 13-3-1-6-9 1-10 4-12-8 1-7 5-5-5-3-4v-2l19-13z" fill="#FBF8F6"/>
<path transform="translate(1349,445)" d="m0 0h42l5 2 2 3v4l-7 2-27 1h-13l-9 3-2 2-4 10-7 5-3 1h-31l-5-2-1-5 4-3 3-1h24l8-6 6-11 4-3z" fill="#FEF8F8"/>
<path transform="translate(574,473)" d="m0 0 2 1 4 19v5l32-1-7 11-1 1-11 1h-10l2 7 8 6-2 5-4 5-4-1-17-12-16-11 2-5 4-6 5 2 9 6-1-8-2-11v-5z" fill="#FCF9F7"/>
<path transform="translate(454,337)" d="m0 0h18l13 5 10 8 9 13 3 5 1 3h-2l3 12 1 7-3 2-4-10-6-9-7-6-11-4h-16l-11 2 3-6v-7l-4-6-4-7z" fill="#FDBCA1"/>
<path transform="translate(1042,467)" d="m0 0 29 1 5 3 1 5-6 2-28 1h-13l-8 3-4 5-5 8-4 4-9 2h-15l-15-2-2-3 1-4 5-2 1 3h5l1-1-4-2 21-1 7-4 6-11 6-5 3-1zm-64 29-1 3h2z" fill="#FE6362"/>
<path transform="translate(1388,306)" d="m0 0 7 1 5 12 8 16 4 11 8 16 5 12 5 10 9 19 5 12 7 13 5 13 3 5 3 11v6l-5 5h-32l-6-5-40-1v-1l39-1 5 1h25l5-2 1-7-8-19-5-10-4-9-5-9-6-16-5-9-5-11-8-17-8-18-8-16-4-10z" fill="#FE6867"/>
<path transform="translate(1044,306)" d="m0 0 7 1 8 16 5 11 4 11 9 17 4 11 4 7 4 10 8 15 4 11 6 11 5 13 3 5 4 16-3 5-3 2h-31l-7-5-40-1v-1l39-1 5 1h26l5-2v-8l-6-15-7-14-9-19-6-15-6-10-4-11-8-16-7-16-8-15z" fill="#FE6867"/>
<path transform="translate(1385,467)" d="m0 0 30 1 4 2 2 5-2 2-5 1-28 1h-13l-9 4-7 12-5 4-8 2h-13l-10-1 2-1 1-6 1-2-2 1-1 3h-4l-1 2-1-2-1 2 5 1v1h-6l-2-2 1-5 3-2 26-1 6-4 5-8 4-6 7-3z" fill="#FE6362"/>
<path transform="translate(470,105)" d="m0 0 30 10 4 2-1 5-1 3-7-1-18-7-1 10 17 6 2 1-2 7-3 1-19-7-2 10 12 4 11 5-3 8-5-1-28-10-1-1 1-8 13-35z" fill="#FAF6F4"/>
<path transform="translate(918,310)" d="m0 0h1l1 27v111l-1 13-3 5-4 2-17 1-6-1v-6l17-1 5-3 1-4 1-140z" fill="#FE6665"/>
<path transform="translate(500,223)" d="m0 0 7 2 11 8 10 9 11 13 14 21v2l2 1h-42l-8-16-8-11h3l7 6 10 14-1-5-6-16-1-4 7 6 10 14v-3l-5-12-8-14-11-12z" fill="#70463C"/>
<path transform="translate(454,573)" d="m0 0h11l8 3 5 4 5 9v9l-5-2h-7l-5-9-4-2h-8l-6 5-1 8 4 8 3 2h8l6-2v12l-4 2h-14l-9-5-6-9-1-3v-13l5-8 7-6z" fill="#FCF9F8"/>
<path transform="translate(546,512)" d="m0 0 4 2 11 11 8 10 2 4v9l-6 10-8-1-9 4-5 3-5-1-22-22 6-7 4-2 19 19 2 1h7l3-3v-7l-6-8-13-13 2-4z" fill="#FCF8F7"/>
<path transform="translate(265,616)" d="m0 0 5 1 5 4 2 4 2 7 2 11v10l-1 5-3-1-1-8 2-7-1-5-1-3-5 10-7 10-7 4-5 1-8 6-9 3-4-2 1-8 6-8 5-5 6-7 11-15 4-6z" fill="#B67A62"/>
<path transform="translate(337,92)" d="m0 0h15l6 2-1 7-1 2-6-1h-10l-5 1v6l6 2 16 3 6 5 1 3v8l-4 6-7 4-4 1h-17l-6-3 1-8 7 1h13l5-1v-5l-4-2-17-3-7-6-1-2v-9l4-6z" fill="#FBF6F4"/>
<path transform="translate(1727,369)" d="m0 0h5l3 4v27l-3 5-3 2h-45l-4 2h-4l-2 4-1 1h-7l-2-4v-7l3-5 5-2 46-1 4-2 1-3 1-17z" fill="#FEFAF9"/>
<path transform="translate(514,127)" d="m0 0h13l10 6 5 4 2 3v3l-5 4-4-2-5-5-6-3h-5l-1 5 4 5 8 7 4 7-1 7-3 5-6 3h-11l-8-4-10-9-2-5 6-5h2l3 5 7 6 4 2h5l1-5-7-8-5-4-3-5v-9l6-7z" fill="#FBF8F6"/>
<path transform="translate(1732,304)" d="m0 0h5l3 3v29l-3 4-4 2-20 1h-45l-2-2v-6l4-3 10-1h14l30-1 3-2 2-5 1-16z" fill="#FEF8F7"/>
<path transform="translate(302,368)" d="m0 0h13l3 2h-15l-8 3-5 5 11-3h13l15 4 9 6 8 9 5 10 3 12 1 8v16l-2 1-1-22-4-13-6-10-5-5-7-5-9-3h-19l-10 3-8 6-6 10-4 13-2 14-2-1-2-10-5-3-2-4 5-1-6-7-1-3h7l-4-7v-2l9 1-1-2v-6l6 3-1-7 4 1 10-8 9-4z" fill="#603B31"/>
<path transform="translate(1779,386)" d="m0 0 10 3 18 3 25 3 9 5 3 2 1 3v7l-3 4-22-2-13-3-24-12-5-4v-2h4l-3-5z" fill="#FE6A69"/>
<path transform="translate(1156,386)" d="m0 0 10 3 18 3 24 3 12 6 1 2v9l-3 4-28-3-10-4-19-9-6-5v-2l4 1-4-7z" fill="#FE6A69"/>
<path transform="translate(220,570)" d="m0 0 2 1v5l6 1 8 6-1 7-2 1 2 2v4h-2l-1 5-10 15-8 4-7-6-8-4v-7l9-14 3-1 2-7 3-4v-6z" fill="#DDB7A5"/>
<path transform="translate(1531,304)" d="m0 0 6 1 2 3v101l-4 4-5-1-1-4v-101z" fill="#FDFDFD"/>
<path transform="translate(794,404)" d="m0 0 5 1 4 9v56l-3 6-3 2h-32l-6-2v-6l6-2 21-1 4-2 2-5 1-55z" fill="#FDFAF8"/>
<path transform="translate(1264,389)" d="m0 0 6 3 2 2 1 4v17l-2 12-5 11-8 11-8 6h-2v2l-16 8-5 2-11 2h-31l-12-3h-5l6 3-3 2-7-3-9-8-2-5 10 3 10 4 7 1h30l21-6 15-9 3-1 7-8h2v-3h2l1-5 3-7 1-4v-21z" fill="#FE6665"/>
<path transform="translate(206,536)" d="m0 0h2l-1 5-3 8h-2l-3 6-9 2-3 3-3 7-3 9-3 12-5 2 2-6 3-7v-8l5-9-5 1v3l-7 3 1 2-6 1v2l-7-1-7-5v2l-8-1-3-5 3-6h2l1-5h2l2-4 2-1 24-1-1 3 2 1v3h8l9-5 3-3h2v-5z" fill="#B4765B"/>
<path transform="translate(550,559)" d="m0 0h3l5 6v2l4 1 10 8 4 6 1 8-3 9-4 8-4-1-5-2-9-11-5-5v-2l-2-1-6-8-2-2v-5l6-7z" fill="#DDB7A5"/>
<path transform="translate(1887,389)" d="m0 0 8 4 1 4v27l-8 16-6 8-3 1-1 3-11 8-12 5-5 2-11 2h-31l-12-3h-4l5 4-2 3-9-6-3-4-3-3v-3l9 2 8 3 6 1h28l10-2 13-4 12-7h3v-2l6-4 8-9 5-13 1-16z" fill="#FE6867"/>
<path transform="translate(817,426)" d="m0 0 4 2 4 8v56l-3 6-3 2-23 1-10-1-4-3h2v-5l3-2 21-1 5-5 1-2 1-54z" fill="#FE6362"/>
<path transform="translate(949,328)" d="m0 0 3 3v87l-8 15-2 5h-1v-107l2-2z" fill="#FE6564"/>
<path transform="translate(210,522)" d="m0 0h5l7 7-1 8-6 16-3 7-4-1-9-4 3-7 2-1 4-11-7 3v7l-1-2-8 6-7 3-7-1v-3l-3-1v-2l-6-5v-2l37-15z" fill="#FBF8F7"/>
<path transform="translate(476,391)" d="m0 0 6 2 6 4 6 7 5 9 2 2 1 6v10l-3 3-3 9-6 7-8 4-13 3-14 1-16-3-10-5-4-4v-15l1-12 2 4 3 11 4 8 7 7 9 4 10 1 11-3 8-6 4-5 5-13v-13l-5-13-8-9z" fill="#FCF8F7"/>
<path transform="translate(324,406)" d="m0 0h12l3 1 1 4h2l2 4v11l-4 11-8 9-8 4-4 1h-10l-10-4-8-8-1-2v-8l4-4 7 1 4 9-1 3 4 2h11l6-1 1-3 3-2 4-9v-3h-6l-4-2-3-5 1-7z" fill="#B47962"/>
<path transform="translate(504,550)" d="m0 0h10l8 4 6 7 2 4v7l-9 4-3 1-2-9-5-5h-10l-6 4h-2l6 11 5 8v2l6-2-1 5h-10l-4 2h-3l-12-20-4-7 10-7 12-7z" fill="#FCF9F8"/>
<path transform="translate(1287,462)" d="m0 0h12l-3 6-6 3-1 7-7 6-14 9-11 4-10 2-10 1h-19l-13-3-14-7-3-3 10 1 7 2 8 1h22l17-4 15-7 11-8z" fill="#FE6362"/>
<path transform="translate(323,250)" d="m0 0h14l-4 2-21 8-21 10-13 8h-39l4-4 21-11 18-6 23-5z" fill="#2A1C19"/>
<path transform="translate(468,406)" d="m0 0h11l4 2 4 6 1 7-2 10-4 8-8 8-10 4h-11l-9-4-8-7-2-6 1-6 4-3h5l4 5v8l4 2h12l6-3 6-8 2-7h-7l-5-4-1-9z" fill="#B57962"/>
<path transform="translate(929,308)" d="m0 0 5 4 1 2 1 157-1 7-5 6h-19l-4-2 4-4 11-1 5-1 1-4 1-14v-133h1l1 7 1-1 1-18h-3z" fill="#FE6362"/>
<path transform="translate(460,375)" d="m0 0h13l13 4 7 4 2-1 2 1v-2h2l-1 6 6-3v6l-1 2h6l3-1-1 4-3 5h7l-3 6-5 4h6l-2 4-3 3h-3l-1 11-2 1-3-19-5-12-6-8-6-4-10-3h-19l-11 4-9 7-7 12-3 9-1 7-1 18h-2v-17l3-16 4-9 6-9 8-7 8-4z" fill="#5F3B31"/>
<path transform="translate(296,391)" d="m0 0 2 1-8 9-4 10-1 5v9l2 8 5 10 8 7 7 3 12 1 13-5 7-7 5-9 3-9h1l1 7v15l-7 6-10 4-13 2-15-1-15-4-8-6-4-6-3-11v-9l4-13 6-9 7-6z" fill="#FCFAF9"/>
<path transform="translate(319,457)" d="m0 0h12l8 6v3l-3 1-1 4-4 4h-2v2l-8 5-6 2h-15l-11-4-6-5-2-7 6-3 4-5h7l3 3-1 2 7 2-4 2 7 2v2l7-5 2 1-1 2 2-2-1-2-7-2-3-1 2-4 3-2z" fill="#FEB29C"/>
<path transform="translate(1553,327)" d="m0 0h5l3 3 1 23v68h-11v-91z" fill="#FE6362"/>
<path transform="translate(194,555)" d="m0 0h8l10 5 2 4-1 12-2 4-3 2-5 10-7 8-5 1-3-4-4-1-2-8 2-11 4-10z" fill="#DDB6A5"/>
<path transform="translate(252,468)" d="m0 0 2 2 2 9v4l7 2 8 4 4 11 7 13 12 16 11 12 1 3-6-2-13-7-14-10-11-10-3-8-3-11-4-25z" fill="#FDBCA0"/>
<path transform="translate(456,403)" d="m0 0 9 1 3 3-2 2 1 9 4 3h8l-3 10-7 8-5 2h-12l-5-3v-8l-4-5v-9l4-8 6-4z" fill="#1F211F"/>
<path transform="translate(313,403)" d="m0 0 8 1 3 3-2 3 1 7 1 3 10 1 1 4-5 10-6 5-4 1h-11l-5-3 1-4-3-7-2-1v-12l4-6 5-4z" fill="#1F211F"/>
<path transform="translate(443,457)" d="m0 0h12l5 2v9l2 3 1 2h10v-4l3-1-2-2h2l2-5-1-2 8-1 1 8 7 1-1 6-4 5-8 4-7 2h-9l-9-3-10-5-6-7-1-2v-7z" fill="#FEB29C"/>
<path transform="translate(342,489)" d="m0 0 7 2 8 5 10 7 9 4 4 1h16l13-3 9-3 5-5h2l-2 5-11 8-6 2-5 1v2l-4 2h-10l-11 2-10 3v2l5 2 10 5 11 2v1h-9l-10-4-10-7-9-9-8-14-4-9z" fill="#5F382E"/>
<path transform="translate(1258,317)" d="m0 0 6 3 2 8v11l-4 5-2 1-24 1-3 3-11-3h-14l-7 3-8 7-9-1-3-3 4-6 9-7v-2l14-1 1-5 5-1 7 7 3 2h17l14 1v-2l4-1v-10l-2-9z" fill="#FE6464"/>
<path transform="translate(624,430)" d="m0 0h2l6 13 15 2-6 7-4 4-1 3h27v1h-26l1 11-6-2-5-3-6 1-8 4-1-4 1-7h-25v-1h26l-3-5-8-8v-1l15-2 5-11z" fill="#ECB650"/>
<path transform="translate(1882,318)" d="m0 0 5 2 2 6v14l-4 4-2 1-24 1-3 1v2l-11-3h-14l-10 5-4 5h-6l-6-2-1-3 9-9 7-5h11v-2h2v-4l5-1 5 6 4 3h33v-2l2-1v-10l-1-7z" fill="#FE6463"/>
<path transform="translate(124,430)" d="m0 0h2l6 12 1 1 14 2-6 7-4 4-1 3h28v1h-27l1 4v7l-10-5-4-1-10 6h-2l2-11h-27v-1h27l-2-5-9-8v-1l15-2z" fill="#ECB751"/>
<path transform="translate(498,592)" d="m0 0 5 1 2 1v2l5 2 5 3 8 10 4 6-1 5-4 3-2 4-4 1-14-7-5-5-2-3v-3l-4-2-2-9 2-4 3-2 1 1 1-3z" fill="#DDB7A5"/>
<path transform="translate(1742,444)" d="m0 0 5 3 1 2v29l-4 5-3 1h-84l-14-1-3-2 1-2-4-1 79-1 15 1 7-2 3-5z" fill="#FE6766"/>
<path transform="translate(499,590)" d="m0 0h9l2 4 3-1 4 5 4 3 3 5 8 10 5 5-4 1 3 5v6l-7 8-6 1-12-2-1-1v-7l-5-2-11-8-4-5-5-2-1-11 7-9h2v-2zm-1 2-2 1-1 3h-3l-3 3 1 9 3 4h2l1 5 5 4 4 4 12 5 4-2 1-3 5-4-1-6-12-15-7-4h-2v-2l-3-2z" fill="#C4927C"/>
<path transform="translate(1603,444)" d="m0 0 4 2 1 6v3h1l1 18-3 8-4 3h-97l-4-2-1-4 15-1h80l5-1 2-5zm1 2 1 4zm0 11v5h1v-5z" fill="#FE6665"/>
<path transform="translate(234,547)" d="m0 0h9l9 4 8 7 4 5-5 5-4 1-7-8-4-2h-4l1 6 8 8 3 5v8l-5 6h-5l-5-15-7-7-4-6v-9l5-6z" fill="#FCF9F7"/>
<path transform="translate(218,439)" d="m0 0 3 4 3 6v5l-2 5v7l2 4 3 5 1 3 1 4 6 5 6 1 4-1 2-3h2l1-13 2 3 2 12v5l-8 5-3 1h-8l-7-4-6-5-4-2-5-11-3-7-1-13 2-8h3l2 1-1-7z" fill="#FDBDA2"/>
<path transform="translate(625,280)" d="m0 0 3 4 4 9 15 2-2 4-8 7 1 9 1 7-12-6-6 1-7 4h-2l1-15-9-9v-2l14-2z" fill="#F1BD50"/>
<path transform="translate(125,280)" d="m0 0 2 2 5 11 15 2v2l-8 7-2 2 1 9 1 7-12-6-6 1-7 4h-2l1-16-9-8v-2l14-2z" fill="#F1BD50"/>
<path transform="translate(475,198)" d="m0 0 18 2 15 5 13 7 9 7 10 9 10 12 8 13 8 16 7 18-1 3-8-19-7-10-10-14-12-13-5-4 9 11 10 15 8 15-1 2-7-11-14-19-13-16-5-5v-2l7 2 9 6-5-5-9-7-14-7-14-4-15-2z" fill="#76493D"/>
<path transform="translate(427,95)" d="m0 0 9 1 2 1-4 22-3 16 13 2 9 2v7l-1 2-11-1-24-5 5-26 4-20z" fill="#FAF5F3"/>
<path transform="translate(235,651)" d="m0 0 1 2-3 5-1 8 3 1 9-3 8-6 5-1-17 17-4 3h-22l-11-1 2-5-1-5-6-3 2-6 1-1 25-1z" fill="#7B4C3E"/>
<path transform="translate(1587,443)" d="m0 0 7 1-1 16-4 6-3 2h-86v-6h-5v-1l87-1 2-1 2-6zm0 10m-1 3m5 1 1 3z" fill="#FEA2A0"/>
<path transform="translate(1807,323)" d="m0 0h18l8 3 4 4-4 1v4h-2v2l-11 1-10 8-5 6-2 1-8-5-1-2v-13l5-6z" fill="#FE908E"/>
<path transform="translate(1184,323)" d="m0 0h18l7 3 5 3-2 2h-3l1 4-2 2h-14l-1 4-9 7-2 5-6-2-5-4-1-11 2-5 7-6z" fill="#FE8F8E"/>
<path transform="translate(320,321)" d="m0 0h7l5 5 5 10 1 7-11-3-7-2h-18l-11 4-9 6-9 11h-4l2-5 8-8 12-13 13-8z" fill="#A0410F"/>
<path transform="translate(393,251)" d="m0 0 3 1-23 7-21 7-24 10-3 2-5 1h-28v-2l19-8 21-7 27-6z" fill="#5A3831"/>
<path transform="translate(527,448)" d="m0 0 2 3 6-1 6 2 2 1 1 3v13h-2l-1 6-2 4-6 2v-6l-2-1-1-4-1-1-2 5v10l-5 1-1 11h10l8-4 6-5 3 1-6 9-5 4-4 2h-11l-4-2-1 3 1-7 4-19 3-23h2z" fill="#F8AC95"/>
<path transform="translate(1726,443)" d="m0 0h6v18l-4 5-2 1-50 1h-41v-6l8-1h66l12-1 3-3 1-3z" fill="#FE6564"/>
<path transform="translate(1022,363)" d="m0 0 4 1 8 16 4 10v6l-3 1v2h-23l-3-2v-7l11-25zm3 2m-5 2m-1 3m-1 2m-1 2m-2 5m-1 2m-1 2 1 2z" fill="#FE8E8C"/>
<path transform="translate(1366,363)" d="m0 0 4 2 8 16 3 9v7l-3 2h-22l-4-3 1-7 10-23zm-2 3m-1 3m-1 2m-1 2m-2 5m-1 2m-1 2 1 2z" fill="#FE8F8D"/>
<path transform="translate(535,624)" d="m0 0 5 5 3 6-1 5-3 5-2 5 1 5 1 2 3-8 1-1h5l5 5v12l-7 1-5-1-1 2-8-6-10-9-7-8v-2l-3-1v-1l15 1 7-6 1-6z" fill="#B67B63"/>
<path transform="translate(940,461)" d="m0 0h15l-3 1 1 6-6 2 1 6 4 1-1 17-2 4-5 2h-32l-2-2v-7l1-1h13l11-1 4-2 1-2z" fill="#FE6766"/>
<path transform="translate(234,601)" d="m0 0 1 4-3 5-6 12-1 6-2-2-1 6 5-1 1 4 3 1h10l6-4 6-9 3-12 4-8 4 2 2 3-1 3h-2l-3 5-4 10-9 12-9 7-3 2h-11l-4 1-1 2-5-2-3-3 1-9 6-7 3-8 6-9 5-7z" fill="#C3927C"/>
<path transform="translate(275,279)" d="m0 0h24l-3 2-21 11-14 10-13 12-10 11-9 14-3 4 1-6 9-19 9-12 11-12 13-11z" fill="#BD611D"/>
<path transform="translate(494,293)" d="m0 0 4 2 10 18 7 15 7 22 4 19 1 8v11l-4-4-6-14-7-26-6-27-4-11-6-10z" fill="#FABCA1"/>
<path transform="translate(483,593)" d="m0 0h1l1 7 1 2-1 7v6l6 2 5 6 14 9v6l-5-5-7-6h-4l-5-5-3-4-1 6h2l-1 9h3l-1 4 2 1-1 5-8 6 1 4-3 3-6-1-6-4-1-3h-2l-1-5 7 3h5v-11l2-5 2-12 2-4-1-16h3z" fill="#B6775D"/>
<path transform="translate(395,220)" d="m0 0 16 1 2 1v2l6-1 9 4 1 2-4 1-5 2 1 9-2 2h-3v2h-2v2l-7-1-3-4-1-7-9-1v-2h-3l-2-6v-2-3z" fill="#7C4C3E"/>
<path transform="translate(1286,342)" d="m0 0 4 1 6 11 1 13-3 7-5 3-4 1h-23l-6-4-1-4 4-3h22l6-4v-13z" fill="#FE6564"/>
<path transform="translate(1909,342)" d="m0 0 5 2 5 9 1 5v11l-3 6-8 3h-24l-6-5-1-3 4-3h22l5-3 2-3-1-12z" fill="#FE6564"/>
<path transform="translate(418,285)" d="m0 0 2 1-10 7-17 9-19 8-3 3-27 11-11 5-4-6-3-3 39-13 28-11 19-8z" fill="#EDA27E"/>
<path transform="translate(1754,393)" d="m0 0 3 3v10l-6 3-1 3v8l2 9h-26l-4-6-2-1-30-1 3-2 2-1h40l8-2 3-8v-11l2-3z" fill="#FE6362"/>
<path transform="translate(183,559)" d="m0 0v3l-4 8v7l-8 16-4-1-10-10-7-8-5-7 7 1v-2l10 5 4 1-1-3 6-1-1-2 4-2h4v-3z" fill="#7D4B3C"/>
<path transform="translate(387,516)" d="m0 0 13 1 12 6-4 4-5 3-7 2h-15l-12-6-3-2v-2l13-5z" fill="#FA625D"/>
<path transform="translate(275,453)" d="m0 0h2l3 5v3h-8l1 5v4l-2 4-1 15-6-2-8-4-3-15 2-6 12-6z" fill="#FEB29C"/>
<path transform="translate(270,563)" d="m0 0 11 5-3 9-11 23-3 5-7-6-3-2 1-4 11-23z" fill="#FCFAF8"/>
<path transform="translate(440,330)" d="m0 0 2 3 14-2h14l13 4 9 6 10 9 2-1 3 10v10l-3-4-7-11-5-6-11-7-9-3h-18l-13 4-5 1 1-8z" fill="#A34210"/>
<path transform="translate(545,279)" d="m0 0h15l5 10 7 24 2 11v11l-2 3-6-20-10-21-10-15z" fill="#BA5D1A"/>
<path transform="translate(250,246)" d="m0 0 2 1-9 11-10 12-5 8h-21l1-4 2-2 7-6 11-9 14-8z" fill="#2A1C19"/>
<path transform="translate(1155,393)" d="m0 0 10 3 21 2 2 1 19 2 6 3 2 3-1 4h-23l-9-2-3-2-10-3-11-6-3-3z" fill="#FEF9F9"/>
<path transform="translate(1778,393)" d="m0 0 11 3 26 3 15 2 7 3 1 6-2 1h-21l-7-2-18-6-11-7z" fill="#FEFAFA"/>
<path transform="translate(454,584)" d="m0 0h8l6 4 2 4v7l-2 6-3 3-3 1h-8l-5-4-3-7 1-8z" fill="#252421"/>
<path transform="translate(264,609)" d="m0 0 2 4-1 1 2 2-5 5-9 13-6 8h-2l-2 5-7 5-10 4-25 1-2 1 2-6 9-14 2-1v8l5 4 2 1 1-3 6-1h9l11-8 9-12 5-12z" fill="#B6775B"/>
<path transform="translate(265,616)" d="m0 0 5 1 4 3-1 9-7 12-7 6-12 1-1-1v-5l12-16 6-9z" fill="#DCB5A3"/>
<path transform="translate(570,554)" d="m0 0 8 1 6 5 8 11 1 4-3 12-4 1-4-5-2-1-4-8-4-4-3-5-3-4 1-4z" fill="#DDB6A4"/>
<path transform="translate(350,508)" d="m0 0 4 4 7 8 7 6 11 6 4 1h12l11-4 4-2v2h5l-2 4-10 5-7 3h-16l-12-5-9-9-8-14z" fill="#FBB099"/>
<path transform="translate(1103,378)" d="m0 0h3l6 13 1 6 3 3 2 5 8 17 9 17 2 5 8 18 3 7 3 11-1 4-4-7-2-4-7-16-6-13-8-18-4-8-13-28-4-9zm0 2m2 0m-1 2m6 9m35 80 1 2z" fill="#FF8484"/>
<path transform="translate(501,562)" d="m0 0h10l5 4 2 4v8l-6 7-5 3h-3l-11-18v-3z" fill="#262421"/>
<path transform="translate(488,450)" d="m0 0 7 2v2l-4 1 4 6-2 5-5 1-3-3-1-5-6 1 1 2h-2l-1 4v3l-1 1-2 1v2h-10l-3-2-1-9v-3l-2-2 18-2 12-4z" fill="#FEB7B4"/>
<path transform="translate(206,536)" d="m0 0h2l-1 5-3 8h-3v-2l-9 5-3 2-13 1-8 3h-9v2l-4 1-1 3-3-5v-9l2-4 24-1-1 3 2 1v3h8l9-5 3-3h2v-5z" fill="#C3927C"/>
<path transform="translate(285,450)" d="m0 0 10 4 9 2 9 1v3l-3 3 4 1 5 2 2 2-1 3-3 1v-3l-4 4h-3v-2h-6l-3-3-2-6-1-1h-7l-5 6-5-1-2-5-2-8z" fill="#FEB7B4"/>
<path transform="translate(419,495)" d="m0 0h3l-2 4-6 5-12 4-6 1h-16l-11-4-11-7 3-1 16 3h18l15-2z" fill="#FBF5F2"/>
<path transform="translate(1723,307)" d="m0 0 7 1v15l-3 6-4 2-2-1h-60v-3l12-2h42l5-1 2-4z" fill="#FE908E"/>
<path transform="translate(509,415)" d="m0 0h3v12l-4 13-6 9-4 3 3 2-2 6-4 5-3-7-1-3 4-1v-2l-6-1 6-8 4-10h2l3-10 1-6z" fill="#FEBEA3"/>
<path transform="translate(1896,330)" d="m0 0 3 4 6 10 1 12-4 5-2 1h-30l-6-4-1-2 23-1 8-3 1-2h2v-11z" fill="#FE6766"/>
<path transform="translate(1273,331)" d="m0 0 4 5 5 10 1 8-3 6-3 2h-31l-6-5v-1l23-1 8-3 2-3z" fill="#FE6665"/>
<path transform="translate(918,310)" d="m0 0h1l1 27v111h-1l-1-15v-36l1-42-6 5v-46z" fill="#FE9796"/>
<path transform="translate(1338,439)" d="m0 0h13l-3 5-1 2-9 2-5 5-5 9-8 6h-16l3-6h-24v-1l33-1 6-2 6-10 5-6z" fill="#FE918F"/>
<path transform="translate(1749,350)" d="m0 0h2l2 9 1 5-18 1-17-1-2-10 1-1h27z" fill="#FE6362"/>
<path transform="translate(250,471)" d="m0 0 2 3 2 12v5l-8 5-3 1h-8l-7-4-6-5-4-2-2-4 1-3 1 2 2-5 5 1 8 9 5 2 7-1 2-3h2z" fill="#FCD0B4"/>
<path transform="translate(540,628)" d="m0 0 6 5 10 14 3 4 1 13-3 4-3 1h-9l-4-2v-2h12l-1-12-4-4h-5l-3 9-4-4 1-5 3-7 2-4-1-6z" fill="#7E4D3E"/>
<path transform="translate(1153,455)" d="m0 0 10 3 10 4 7 1h30l11-1 5 4-6 2-4 1h-31l-12-3h-5l6 3-3 2-7-3-9-8z" fill="#FE6766"/>
<path transform="translate(1780,457)" d="m0 0 9 2 8 3 6 1h28l13-1 5 4-5 2-5 1h-31l-12-3h-4l5 4-2 3-9-6-3-4-3-3z" fill="#FE6867"/>
<path transform="translate(995,439)" d="m0 0h13l-3 1-1 5h16v1l-22 1-6 2-3 3-3 8-8 7-2 1h-14l1-5 1-1 9-2 6-3 7-11 7-6z" fill="#FE9290"/>
<path transform="translate(567,618)" d="m0 0 5 5 9 10 3 3v6 2l2 3 4 2v8l-4 6-4 1 2-4 2-3-1-7-3-2v-2l-3-1h-7l-4 8-4-4 1-5 3-5 2-2 1-9-4-6z" fill="#7C4C3E"/>
<path transform="translate(485,617)" d="m0 0 5 5 3 4 2-1 7 4 5 6h-2v2l-12 9-10 7-1-3-2-1 8-6 2-5-3-1 2-4h-3l1-9h-2z" fill="#7B4C3E"/>
<path transform="translate(191,615)" d="m0 0 1 2-6 10-4 5-6 9-8 4h-6l-5-5-1-9h3l2 7 4 1 8-4 1-3v-7l-10-1 5-5 10 1 5 1z" fill="#7D4D3F"/>
<path transform="translate(854,406)" d="m0 0h5l1 6-6 12-8 7-2 1h-7l-3-2 1-5 15-15z" fill="#FEF7F6"/>
<path transform="translate(531,454)" d="m0 0 2 1-3 3v9l-3 7v10l-5 1-1 11h10l8-4 6-5 3 1-6 9-5 4-4 2h-11l-4-2-1 3 1-7 4-19 3-20 4-2z" fill="#EDA37F"/>
<path transform="translate(1129,465)" d="m0 0 2 3 2 6v7l-1 2-5 1h-30l-11-5v-1l35-1 4-2 2-5z" fill="#FE6B6A"/>
<path transform="translate(1878,440)" d="m0 0 1 2 6 2-4 5h-2l-1 3-11 8-12 5-7 2-4-4-3-2 13-4 12-7h3v-2l6-4z" fill="#FE6C6A"/>
<path transform="translate(542,584)" d="m0 0 5 5 8 10 4 9v9l-4 4-9 3-2 2-5-1-4-4 6-3 4-6h6l-1-12-6-11z" fill="#C5937C"/>
<path transform="translate(535,438)" d="m0 0h12l6 4 3 8v18l-3 8-1-3v-16l-4-8-3-1h-8l-6 1v2l-3 1v-5z" fill="#FACEB3"/>
<path transform="translate(320,321)" d="m0 0h7l5 5 1 7h-9l-6-1h-14l-14 3 5-5 12-6z" fill="#B95E1B"/>
<path transform="translate(274,621)" d="m0 0 2 2-1 8-5 12-8 8-6 3h-4v2l-5 1h-8l-1-5 7-10h1l1 5 12-1 7-6 6-11 1-7z" fill="#C4927C"/>
<path transform="translate(575,552)" d="m0 0h5v2l4 2 9 9 4 8 2 13-2 10-2 3-5-2-5-8v-3l4 1 3-14-6-9-6-7-8-3z" fill="#C3927C"/>
<path transform="translate(1473,466)" d="m0 0 2 3 2 6-1 7-6 2h-30l-7-4 4-2h19l8-1 5-4 1-3h2z" fill="#FE6766"/>
<path transform="translate(209,355)" d="m0 0h1l-1 11-1 10v16l3 20 6 20 2 7-4 3h-2l-5-17-3-24v-23l3-21z" fill="#2E2623"/>
<path transform="translate(475,198)" d="m0 0 18 2 15 5 13 7 9 7 10 9 4 6-4-2-12-9-9-7-14-7-14-4-15-2z" fill="#77493D"/>
<path transform="translate(224,451)" d="m0 0 3 4 8 12 1 1v5l-1 4v5l2 3v3l-5-2-5-5v-5l-3-2v-4l-2-1-1-2v-8z" fill="#FDB09A"/>
<path transform="translate(248,450)" d="m0 0h2l2 20 2 7 2 14-2 5-7 6-9 2-6-2-7-5-6-9 3-1 10 8 3 1h8l8-4 3-1-5-26z" fill="#DE9877"/>
<path transform="translate(601,579)" d="m0 0 2 1 3 10 8 17v7l-6-5-1 1h-7l2 9v5h-2v6h-7l3-9v-7l-3-4-1-5 3 1 3 5-1-4 5 1 2-5-1-9-2-6z" fill="#70463C"/>
<path transform="translate(1522,462)" d="m0 0h47l3 2 16 1-1 2h-65z" fill="#FE6261"/>
<path transform="translate(1189,329)" d="m0 0h13l8 4-2 4-14 1-10 5-5-1-1-5 3-5z" fill="#FEFCFC"/>
<path transform="translate(580,552)" d="m0 0h12l9 3 10 4-1 4-9 10h-2l-7-11-7-7-5-2z" fill="#794B3E"/>
<path transform="translate(1813,329)" d="m0 0h12l7 3 1 3h-2v2l-14 1-9 5h-5l-2-2 1-7 4-3z" fill="#FEFDFC"/>
<path transform="translate(1528,307)" d="m0 0h1l1 71-1 28h-1v-75h-4v24h-1l-1-40 1-7z" fill="#FE9794"/>
<path transform="translate(543,476)" d="m0 0h4l1 2v9l-7 4-7 5-3 1h-7l-3-1v-7l4-1 7-1 7-6z" fill="#FCD0B4"/>
<path transform="translate(1726,443)" d="m0 0h6v18l-4 5-3 1-17-2-1-1-29-1v-1l31-1 12-1 3-3 1-3z" fill="#FE8B8A"/>
<path transform="translate(593,633)" d="m0 0 5 1 5 5-1 5-3 5 2 1-3 1h-7l-7-5-2-4h2l-1-6 5 2z" fill="#B57A63"/>
<path transform="translate(382,457)" d="m0 0h11l4 2 2 6-5 2-10 1-2 4-5-1-3-3-2-6z" fill="#FEBEA3"/>
<path transform="translate(324,406)" d="m0 0h12l3 1v9l-5 6h-6l-4-2-3-5 1-7z" fill="#FBF7F5"/>
<path transform="translate(468,406)" d="m0 0h11l4 2v7l-3 5-4 2-7-1-3-3-1-9z" fill="#FCF9F8"/>
<path transform="translate(211,635)" d="m0 0v3l-7 10-5 9-4 4h-6v-7l-4-4-7-1 3-5 7 1 4 2 8-1h3l1-5z" fill="#7B4C3E"/>
<path transform="translate(193,538)" d="m0 0 7 1 1 7-1-2-8 6-7 3-7-1v-3l-3-1 3-5 11-4z" fill="#F3A98C"/>
<path transform="translate(339,376)" d="m0 0 5 4 7 11 4 11 2 11v8l-1 5-2-2-3-17-4-9-6-9v-6l-3-1-1-5z" fill="#FDB199"/>
<path transform="translate(473,596)" d="m0 0 3 1 3 8 1 9-4 7h-3l-3-1-2-2-1-13 3-7z" fill="#F0A684"/>
<path transform="translate(246,406)" d="m0 0h1l2 44-5-5-3-2v-2h-2v-7z" fill="#2A2522"/>
<path transform="translate(371,463)" d="m0 0h2l2 7 9 3h13l9-4 1 4-5 4-6 1h-17l-8-2-3-4v-5z" fill="#E59A77"/>
<path transform="translate(505,635)" d="m0 0 4 2 4 5-16 8-20 8-4 1-4-6 6 2 5-1 14-10 9-7h2z" fill="#302824"/>
<path transform="translate(514,279)" d="m0 0h11l2 18v3l2 1 4 16-1 4-13-30z" fill="#F1A580"/>
<path transform="translate(423,497)" d="m0 0h2l-2 5-11 8-6 2-5 1v2l-18-1-4-3 6-2 17-2 16-5z" fill="#8F310E"/>
<path transform="translate(409,527)" d="m0 0 1 2h5l-2 4-10 5-9 2-4-4h-16l-5-3 1-5 13 5h12l11-4z" fill="#F0A582"/>
<path transform="translate(1718,372)" d="m0 0 6 1v17l-3 5-5 1v-1l-9-1-3-2-19-1v-1l31-1 1-3z" fill="#FE9693"/>
<path transform="translate(300,202)" d="m0 0 4 1h-2v2l-29 12-24 12-3-1 4-4 23-12 21-8z" fill="#784A3D"/>
<path transform="translate(1456,399)" d="m0 0h3l13 28 4 8v2h2v14l-2-4-8-18-6-12-7-15z" fill="#FF8686"/>
<path transform="translate(314,338)" d="m0 0 4 1-9 8-1 2v7l3 4v2h-18l6-11 9-9z" fill="#FFBCA1"/>
<path transform="translate(607,608)" d="m0 0 5 3 3 1v9l-5 6-4 1-4-8-2-5v-5h7z" fill="#B87D67"/>
<path transform="translate(469,260)" d="m0 0 7 6 2 3-29 14-4-1 11-8 9-9z" fill="#EFA47E"/>
<path transform="translate(499,590)" d="m0 0h9l2 4 3-1 4 5 4 3 3 5 8 10 5 5-3 1-5-5-5-3-10-13-9-5v-2l-9-1-1 5-2-3v-2z" fill="#E7A588"/>
<path transform="translate(548,560)" d="m0 0 1 3-2 3 4-2 4 1-2 4v1h2l-1 7-3 1h-4v-2h-9l-1-1v-5l6-7z" fill="#FDBDA3"/>
<path transform="translate(524,578)" d="m0 0 4 2 2 8-1 3-3 1h-9-3l-1 2h-3l-1-6 1-3 2 1 1-1 3-4 5-1z" fill="#FFB69E"/>
<path transform="translate(1587,443)" d="m0 0 7 1-1 16-4 6-17-1-3-3h13v-2l2-1 2-6zm0 10m-1 3m5 1 1 3z" fill="#FE8C8C"/>
<path transform="translate(145,567)" d="m0 0 5 2 17 12 7 4-1 5-2 3-4-1-10-10-7-8z" fill="#2D2824"/>
<path transform="translate(220,570)" d="m0 0 2 1v5l6 1 5 4h-2l2 3-1 4-9 1-5-8-5 3 2-5 1-3v-4z" fill="#FDBDA5"/>
<path transform="translate(1212,351)" d="m0 0h13l6 3v4l-1 1h-13l-16-2 4-4z" fill="#FE6463"/>
<path transform="translate(303,369)" d="m0 0h10l10 3 1 5-10-1h-13l-11 2 2-4 7-4z" fill="#F7AE97"/>
<path transform="translate(192,279)" d="m0 0h8l-2 4-12 19-7 15-2 3 1-8 6-17z" fill="#B45616"/>
<path transform="translate(1836,351)" d="m0 0h12l6 3v4l-1 1h-12l-17-2 4-4z" fill="#FE6463"/>
<path transform="translate(461,369)" d="m0 0h10l10 3 2 5-10-1h-13l-10 1 1-5z" fill="#F8AF98"/>
<path transform="translate(356,598)" d="m0 0h10l5 4-1 7-3 2h-11z" fill="#2A2622"/>
<path transform="translate(407,596)" d="m0 0 8 1 2 3-1 7-7 3h-6l-1-4v-9z" fill="#2C2724"/>
<path transform="translate(295,585)" d="m0 0 10 3 3 3-1 7-2 2h-8l-5-2 1-7z" fill="#2B2723"/>
<path transform="translate(397,460)" d="m0 0 4 2 5 6-4 4-5 2h-13l-3-2 2-4 1-1 14-2z" fill="#FEB59E"/>
<path transform="translate(418,285)" d="m0 0 2 1-10 7-17 9-9 4-9 1 1-3 5-1v-2l31-13z" fill="#EDB25F"/>
<path transform="translate(194,555)" d="m0 0h8l8 5-2 1-2-1-1 2 4 2v3l-4 1-1-1-3 1-4-3-1-3-9 9 1-4z" fill="#FBB2A5"/>
<path transform="translate(1388,306)" d="m0 0 7 1 5 12 5 10-1 2-5 2-10-21z" fill="#FE908E"/>
<path transform="translate(222,572)" d="m0 0 1 2 6 1 6 4 5 5 4 10-4 4-4 7-2-3-3 2 2-7h2l-2-5-1-2h3v-7l-9-6-4-1z" fill="#C9957D"/>
<path transform="translate(1044,306)" d="m0 0 7 1 8 16 2 7-5 4-10-21z" fill="#FE908E"/>
<path transform="translate(530,568)" d="m0 0h1v5l6-1 3 5 7 9v2l4 2 8 10-2 2-10-11-4-6h-2v-2l-3-1-1-2-7 2-1-4-6-2 2-3 4-1z" fill="#D1987F"/>
<path transform="translate(544,241)" d="m0 0 5 4v-2h3l10 17 9 21 2 9-2-2-6-15-12-18-8-10z" fill="#75483C"/>
<path transform="translate(471,256)" d="m0 0 4 2 8 7 11 12v1h-6l-1 2-9-11-8-8-1-3h2z" fill="#252320"/>
<path transform="translate(1643,461)" d="m0 0h16l-2 1v5h14v1h-36v-6z" fill="#FE9693"/>
<path transform="translate(784,457)" d="m0 0 1 2-1 8 2 1-23 1v-7l2-1 14-1z" fill="#FE9290"/>
<path transform="translate(1331,475)" d="m0 0 2 2-3 6-8 1h-12l-5-1-4-4v-1l25-1z" fill="#FE9696"/>
<path transform="translate(1237,453)" d="m0 0 2 1-1 2h10l-5 4-16 7-2-1-4-3-4-2 14-4z" fill="#FE8E8D"/>
<path transform="translate(1539,309)" d="m0 0 3 1 2 4v16h-4v77h-1zm1 4v16l2-4-1-12z" fill="#FF9191"/>
<path transform="translate(497,251)" d="m0 0 4 2 6 5 10 14 2 6h19v1h-25l-8-16-8-11z" fill="#72473D"/>
<path transform="translate(531,454)" d="m0 0 2 1-3 3v9l-3 7v10l-5 1-1 9-3 10-1-4 5-22 3-20 4-2z" fill="#C66452"/>
<path transform="translate(1859,454)" d="m0 0h2v2h10l-4 4-12 5-7 2-4-4-3-2 13-4z" fill="#FE8E8D"/>
<path transform="translate(988,474)" d="m0 0h2l-2 6-2 3-22 1-5-3-1-3 25-1zm-27 5m14 0v1h7v-1z" fill="#FE9594"/>
<path transform="translate(476,421)" d="m0 0 3 1-3 9-7 8-5 2h-12l-5-3 1-4 9 3 7-1 6-4 3-5 1-5z" fill="#13244A"/>
<path transform="translate(238,442)" d="m0 0 5 1 5 6 2 16v6l-2-4-6-11-4-4z" fill="#FACFB4"/>
<path transform="translate(910,459)" d="m0 0h1l1 9-17 1-6-1v-6l17-1z" fill="#FE9391"/>
<path transform="translate(276,632)" d="m0 0h1l2 10-2 7v8l-7-4h-4l-2 1 2-5 6-8z" fill="#794B3E"/>
<path transform="translate(243,592)" d="m0 0 5 1 9 5v3l-7-3 4 8-6-2v4l-5-1v-4l-1-3-4 2 2-6z" fill="#F5B1A5"/>
<path transform="translate(334,421)" d="m0 0 1 4-5 10-6 5-4 1h-11l-5-3 1-3 5 1 7 1 7-3 4-4 3-8z" fill="#12244A"/>
<path transform="translate(182,581)" d="m0 0h1v8l1 7h5l3 4 5-2 3-2-2 4-4 2-1 3-4-1-2-2-8-1-3-5v-2l4-4z" fill="#F1A580"/>
<path transform="translate(226,279)" d="m0 0h10l-5 5-9 8-8 10-8 15-1-3 10-19 10-15z" fill="#BC601B"/>
<path transform="translate(226,665)" d="m0 0 4 1 1 5h3l-2 5 4 1h-22l2-1 1-3 8-7z" fill="#B77D66"/>
<path transform="translate(529,467)" d="m0 0 1 3 2 1 1 10 2 1-1 5-5 2-7-1v-3l4-2v-9z" fill="#FFB7B4"/>
<path transform="translate(527,448)" d="m0 0 2 3 6-1 6 2-2 2 2 2v3l-6 3h-2l-1 4h-2l-1-8 2-3-5 4-1-4h2z" fill="#FE8482"/>
<path transform="translate(214,566)" d="m0 0 2 2 1 10-4 7-2 4-4 4-4 5v-2h-2l-1 2 1-5 5-8 3-5h2l2-13z" fill="#EBA27F"/>
<path transform="translate(439,425)" d="m0 0h5l4 5v5l-3 2h-8l-3-3 1-6z" fill="#FCF6F3"/>
<path transform="translate(1516,477)" d="m0 0h27v1h-21v5l-16 1-4-2-1-4z" fill="#FE9795"/>
<path transform="translate(292,114)" d="m0 0h2l9 12 1 3-11 3h-3z" fill="#2F2925"/>
<path transform="translate(295,425)" d="m0 0 7 1 2 3v6l-2 2h-9l-2-2v-6z" fill="#FDFAF8"/>
<path transform="translate(484,613)" d="m0 0 1 2 6 2 5 6 14 9v6l-5-5-7-6h-4l-5-5-3-4-1 6h2l-1 9h3l-1 2-3-1-2-10z" fill="#B87048"/>
<path transform="translate(532,260)" d="m0 0 7 6 7 7 3 5-1 1h-10l-6-16z" fill="#573730"/>
<path transform="translate(390,104)" d="m0 0h2l5 14v3l-14-1z" fill="#2B2723"/>
<path transform="translate(535,438)" d="m0 0h12l6 4 2 5-1 4-6-5-4-2h-12l2-5z" fill="#FAEAE0"/>
<path transform="translate(177,566)" d="m0 0 1 2-1 2v12l-3 4-7-4 2-1v-3l-7-2-1-3h10l3-3 1-3z" fill="#5E3A32"/>
<path transform="translate(498,592)" d="m0 0 5 1-1 8h-2l-2 4-4 2-2-2-2 1-1-7 5-4 1 1 1-3z" fill="#FDBBA8"/>
<path transform="translate(420,493)" d="m0 0h4l-1 3-7 1-6 2-15 2h-18l-16-3-5-2 3-1 15 3h25l18-4z" fill="#713F2E"/>
<path transform="translate(237,459)" d="m0 0 5 5 4 8v10l-3 2-3-1v-9l-3-4z" fill="#FC6865"/>
<path transform="translate(1022,378)" d="m0 0 4 1 2 3-1 7-4 4-6-2 1-7z" fill="#FEFEFE"/>
<path transform="translate(492,628)" d="m0 0 11 2 4 5h-2v2l-4 2-3-1-8 6 2-5 1-5-1-1z" fill="#5C3932"/>
<path transform="translate(1032,382)" d="m0 0 3 1 3 7v6l-3 2h-9l2-6z" fill="#FE6665"/>
<path transform="translate(1153,455)" d="m0 0 10 3 9 3-2 1v3l-2 1 6 3-3 2-7-3-9-8z" fill="#FE8E8D"/>
<path transform="translate(1742,444)" d="m0 0 5 3 1 2v16h-6z" fill="#FF8686"/>
<path transform="translate(1156,386)" d="m0 0 10 3 14 2v1h-8v5h-7l-6-3-4-7z" fill="#FE918F"/>
<path transform="translate(1365,378)" d="m0 0h4l3 5-3 9-4 1-4-2 1-8z" fill="#FDFDFD"/>
<path transform="translate(1264,389)" d="m0 0 6 3 2 2 1 4v15h-1l-1-7-3-1-1 6h-1l-2-16z" fill="#FE9693"/>
<path transform="translate(534,227)" d="m0 0 6 4 7 5 4 7-2 3-5-4-7-6-5-5v-2h2z" fill="#71463B"/>
<path transform="translate(236,470)" d="m0 0 4 2 1 2v9l5 3-1 2-7 1-2-4-2-3v-8z" fill="#FFB7B5"/>
<path transform="translate(1376,382)" d="m0 0 3 2 2 6v7l-2 1h-10z" fill="#FE6463"/>
<path transform="translate(1780,457)" d="m0 0 9 2 6 2-1 4-2 1 5 4-2 3-9-6-3-4-3-3z" fill="#FE8C8C"/>
<path transform="translate(601,579)" d="m0 0 2 1 3 10 8 17v7l-2-2-6-12v-3h-2l-3-9z" fill="#7F5042"/>
<path transform="translate(1779,386)" d="m0 0 10 3 14 2v1h-8v5l-9-1-3-1-4-7z" fill="#FE8F8E"/>
<path transform="translate(527,617)" d="m0 0h1l-1 10-5 8-4 1-8-7-3-3 4 1 6 2 3-1 2-4 4-3z" fill="#F1A580"/>
<path transform="translate(1316,460)" d="m0 0 2 1-1 5 3 2h-16l3-6h-24v-1z" fill="#FE9794"/>
<path transform="translate(526,279)" d="m0 0h11l1 6-3 7-2 4-7-15z" fill="#F1A580"/>
<path transform="translate(562,610)" d="m0 0 4 4 2 4 1 6 3 4-1 10-3 1-4 10h-2l1-6h2v-7l2-2-1-10-3-9z" fill="#BB5F1B"/>
<path transform="translate(209,355)" d="m0 0h1l-1 11-1 10v16l1 13h-3l-1-4v-23l3-21z" fill="#452F2A"/>
<path transform="translate(865,440)" d="m0 0h1l1 5v9h-8l-3-3 2-5z" fill="#FE6665"/>
<path transform="translate(1887,389)" d="m0 0 8 4 1 4v9h-7z" fill="#FE9290"/>
<path transform="translate(366,182)" d="m0 0h29l2 2-28 1-10 1h-9v-2z" fill="#6C4339"/>
<path transform="translate(929,308)" d="m0 0 5 4 1 2v23l-5 4-1-1v-15h1l1 7 1-1 1-18h-3z" fill="#FE8988"/>
<path transform="translate(185,540)" d="m0 0 8 1-3 4-6 1v3 1l1 2h-7v-3l-3-1 3-5z" fill="#FBB5AE"/>
<path transform="translate(390,459)" d="m0 0 7 2 2 4-5 2h-7l-5-2 2-4z" fill="#FEFEFE"/>
<path transform="translate(212,446)" d="m0 0 5 5-2 2-1 4-1 15-2-1-2-10 1-12z" fill="#F4C8AE"/>
<path transform="translate(254,657)" d="m0 0 3 1-12 11-7 7h-6v-2l5-3 4-4h2l2-4z" fill="#7E4F41"/>
<path transform="translate(1718,372)" d="m0 0 6 1v15h-7z" fill="#FE7372"/>
<path transform="translate(303,194)" d="m0 0h4v2h2v2l-27 7-3-1 18-8z" fill="#774333"/>
<path transform="translate(1484,461)" d="m0 0 5 1 5 15 1 8-4-5-7-16z" fill="#FE8685"/>
<path transform="translate(264,609)" d="m0 0 2 4-1 1 2 2-5 5-9 13h-3l8-14 3-7z" fill="#B87D67"/>
<path transform="translate(540,630)" d="m0 0 2 2 1 6-4 7-2 5 1 7-5-5-1-4 3-6 4-4z" fill="#BC601B"/>
<path transform="translate(171,615)" d="m0 0h7l4 3 5-1h3l-6 5-5-1-11-1-3 2 2-5z" fill="#BC601B"/>
<path transform="translate(202,640)" d="m0 0 3 1-2 6h-7l-4 1-6-3h-5l-2 1 2-4h14l5 1z" fill="#BC601B"/>
<path transform="translate(152,566)" d="m0 0 10 5v5l5 1 2 1v3l-5-1-16-11 4-1z" fill="#804E3D"/>
<path transform="translate(1429,340)" d="m0 0 3 4 5 10 3 4 1 6h2l-2 6-3-4-10-23z" fill="#FF8383"/>
<path transform="translate(323,372)" d="m0 0 6 2 12 9 1 4h-3l-8-6-9-3 2-1z" fill="#C18165"/>
<path transform="translate(498,637)" d="m0 0 3 1-1 3-14 10-4 2v-3l-2-1 8-6 4-1z" fill="#7F4F40"/>
<path transform="translate(1603,444)" d="m0 0 4 2 1 6v3h1v11h-6zm1 2 1 4zm0 11v5h1v-5z" fill="#FE8D8C"/>
<path transform="translate(436,484)" d="m0 0 5 2 2 4-5 4h-3l2-6-9 3-2-1v-2l5-3z" fill="#DD9677"/>
<path transform="translate(1805,417)" d="m0 0 25 3 3 2-19 1-8-2z" fill="#FE6C6B"/>
<path transform="translate(1182,417)" d="m0 0 24 3 2 2-17 1-9-2-1-2z" fill="#FE6A69"/>
<path transform="translate(973,490)" d="m0 0 2 1v2h5l1 3-1 4-10-1-2-3 1-4zm5 6-1 3h2z" fill="#FE6564"/>
<path transform="translate(592,632)" d="m0 0h7l7 6v3h2l-2 5-4 3h-3l2-5 1-5-6-5h-5z" fill="#764B40"/>
<path transform="translate(1637,478)" d="m0 0h20v5h-14l-3-2 1-2z" fill="#FF8585"/>
<path transform="translate(487,457)" d="m0 0h5l3 4-2 5-5 1-3-3v-5z" fill="#FEFEFE"/>
<path transform="translate(1448,377)" d="m0 0 3 4 7 15-1 3-2-2-2 1-7-16zm0 3m-1 1m2 1m-1 1m2 1-1 2h2zm4 9 1 2z" fill="#FF8383"/>
<path transform="translate(539,578)" d="m0 0 4 2 4 6v2l4 2 8 10-2 2-10-11-4-6h-2v-2l-3-1z" fill="#E8A17F"/>
<path transform="translate(370,528)" d="m0 0 13 5 9 1v1l-5 1h-13l-5-3z" fill="#E9A07E"/>
<path transform="translate(582,643)" d="m0 0 4 4 4 2v8l-4 6-4 1 2-4 2-3-1-7-3-2v-2l-3-1z" fill="#73483D"/>
<path transform="translate(282,457)" d="m0 0 6 1 1 1v5l-3 3-5-1-2-5z" fill="#FEFEFE"/>
<path transform="translate(275,453)" d="m0 0h2l3 5v3h-8v2l-4-1v-5z" fill="#F2A885"/>
<path transform="translate(297,409)" d="m0 0 1 2-2 9v5l-4 4-1 6h-1v-11l4-11z" fill="#B67A63"/>
<path transform="translate(227,660)" d="m0 0v3l-4 6-3 2h-10l-1-6h12z" fill="#71473D"/>
<path transform="translate(605,597)" d="m0 0 2 3 5 9-1 2-3-2-1 1h-7l2 9h-2l-2-10-1-2 5 1 2-5z" fill="#71473D"/>
<path transform="translate(516,581)" d="m0 0 8 1-2 4-2 2-4-1v-3l-2 4v6h-4l-1-6 1-3 2 1 1-1z" fill="#FBB5AA"/>
<path transform="translate(302,368)" d="m0 0h13l3 2h-15l-8 3-4 3-1 3-10 5 2-4 5-4 4-4z" fill="#A5734F"/>
<path transform="translate(1258,317)" d="m0 0 6 3 2 8-1 4v-2h-4l-1 3-3-15z" fill="#FE9692"/>
<path transform="translate(418,285)" d="m0 0 2 1-10 7-7 4h-10l2-2 17-7z" fill="#E2A268"/>
<path transform="translate(246,597)" d="m0 0 4 1 4 8-6-2v4l-5-1v-4l1-5z" fill="#FEBCA1"/>
<path transform="translate(340,485)" d="m0 0h6v2l-3 2-2 6-9-2 1-4z" fill="#CD8C6E"/>
<path transform="translate(491,595)" d="m0 0 2 1-3 3 1 9 4 4 1 5-7-6-4-3v-6z" fill="#EDA380"/>
<path transform="translate(522,574)" d="m0 0 6 2 3 3-1 4h-2l-2-4-5 2-6 2-2 4-2-1 4-6z" fill="#EAAF9C"/>
<path transform="translate(863,388)" d="m0 0h3l1 2v20h-1l-1-11-7-6z" fill="#FE9897"/>
<path transform="translate(1086,341)" d="m0 0 3 4 5 10 1 4 3 6-2 4-11-25z" fill="#FF8383"/>
<path transform="translate(763,477)" d="m0 0 21 1 1 6-12-1v-2l-6-2 1 3-3-1zm13 2v1h6v-1z" fill="#FE908F"/>
<path transform="translate(1882,318)" d="m0 0 5 2 2 6-1 4h-4l-1 3-2-14z" fill="#FE9694"/>
<path transform="translate(971,461)" d="m0 0h4v6h-13l2-5z" fill="#FE6362"/>
<path transform="translate(441,408)" d="m0 0 1 2-2 5-1 11-5 4v-9l6-12z" fill="#B67A63"/>
<path transform="translate(1740,309)" d="m0 0 3 1 2 4v15h-4v6h-1zm1 3v11h2l1 4v-12h-2z" fill="#FF8E8D"/>
<path transform="translate(607,563)" d="m0 0 2 1-8 9h-2l-3-7v-2h7z" fill="#603C34"/>
<path transform="translate(194,555)" d="m0 0h8v2l-8 5-4 7-3 2 1-4z" fill="#F0A581"/>
<path transform="translate(495,452)" d="m0 0 6 2-2 6-4 5-3-7-1-3 4-1z" fill="#FEB49E"/>
<path transform="translate(1316,490)" d="m0 0h10l-1 2h-2l-1 3h-4l-1 2-1-2-1 2 5 1v1h-6l-2-2 1-5z" fill="#FF8383"/>
<path transform="translate(959,479)" d="m0 0h15l-1 5h-9l-5-3z" fill="#FE6C6C"/>
<path transform="translate(257,631)" d="m0 0 3 1 1 4-4 5h-5v-5z" fill="#FDD2B6"/>
<path transform="translate(573,556)" d="m0 0 4 1v3l-3 6-4-2-3-1v-3z" fill="#FBD0B5"/>
<path transform="translate(220,570)" d="m0 0 2 1v5l4 1-7 1-1 3-5 3 2-5 1-3v-4z" fill="#FFB7B6"/>
<path transform="translate(1323,457)" d="m0 0h2v7l-4 3h-5l2-7z" fill="#FE6564"/>
<path transform="translate(481,372)" d="m0 0 5 2 8 6-1 4-12-6 2-1z" fill="#BB8558"/>
<path transform="translate(1735,375)" d="m0 0 4 2 2 4v5l-1 1h-5l-1-2z" fill="#FE6564"/>
<path transform="translate(418,223)" d="m0 0 9 3 2 3-4 1-1 1h-5l-1-3h-2z" fill="#7D4D3F"/>
<path transform="translate(527,448)" d="m0 0 2 3 6-1 6 2v1l-10 2-5 4-1-4h2z" fill="#D89271"/>
<path transform="translate(209,593)" d="m0 0h2l2 3-1 7-6 1-1-4z" fill="#FDD2B6"/>
<path transform="translate(577,571)" d="m0 0h6l3 4v5h-4l-5-7z" fill="#FDD2B6"/>
<path transform="translate(206,536)" d="m0 0h2l-1 5-3 8-3-3-1-7z" fill="#2F2824"/>
<path transform="translate(1312,479)" d="m0 0h11l-1 5h-12z" fill="#FE6766"/>
<path transform="translate(548,560)" d="m0 0 1 3-4 4h-2l-2 5-3 4-1-1v-5l6-7z" fill="#F8B5AD"/>
<path transform="translate(449,372)" d="m0 0 2 1v5l-10 4v-2l-5 2 5-5z" fill="#C58567"/>
<path transform="translate(516,602)" d="m0 0 5 4 4 5h3l7 8 2 2-3 1-5-5-5-3-8-10z" fill="#E5A07F"/>
<path transform="translate(594,554)" d="m0 0 9 2 7 3-1 3h-6l-6-5-3-1z" fill="#B67A63"/>
<path transform="translate(470,595)" d="m0 0h8l4 2-2 1 1 5v8l-2-1-3-11-1-2-5 1z" fill="#C79781"/>
<path transform="translate(234,601)" d="m0 0 1 4-6 10h-2l-2 5-4 6-2-1 10-16z" fill="#B77D66"/>
<path transform="translate(330,193)" d="m0 0h7v1l-27 6-5 1v-3z" fill="#251D1B"/>
<path transform="translate(470,603)" d="m0 0 3 1v12h-3l-2 2v-12h3z" fill="#FABAB4"/>
<path transform="translate(221,577)" d="m0 0 4 1-3 1 2 4 5 3v3h-6l-4-6v-5z" fill="#FEB59E"/>
<path transform="translate(889,462)" d="m0 0 12 1-3 5h-9z" fill="#FE6261"/>
<path transform="translate(273,642)" d="m0 0 1 2-1 2v6 3l-4-3-5 2 2-5 5-6z" fill="#674037"/>
<path transform="translate(382,457)" d="m0 0h11l4 2v2l-7-1-8 2v-2l-2-1z" fill="#FEBBA2"/>
<path transform="translate(224,451)" d="m0 0 3 4 2 5h-6v6l-2 1v-8z" fill="#E59A73"/>
<path transform="translate(463,399)" d="m0 0 9 1 8 5 1 2-9-1-4-4-5-2z" fill="#B67A63"/>
<path transform="translate(343,392)" d="m0 0 4 4 4 8 1 3v7l-2-3-5-11-1-5z" fill="#4F2C1F"/>
<path transform="translate(526,603)" d="m0 0h7l2 2v5h-4l-5-5z" fill="#FDD2B6"/>
<path transform="translate(1734,386)" d="m0 0 6 1v8h-4v5h-1z" fill="#f88"/>
<path transform="translate(1255,440)" d="m0 0 1 2 5 2-3 5-8-3z" fill="#FF8B8B"/>
<path transform="translate(1695,418)" d="m0 0h11l4 2v1h-20l3-2z" fill="#FE7D7C"/>
<path transform="translate(235,588)" d="m0 0 1 4v3h2l-1 4v4l-2 2-1-3-3 2 2-7h2l-2-5-1-2h3z" fill="#ECA27F"/>
<path transform="translate(222,572)" d="m0 0 1 2 6 1 6 4 2 2v7h-1l-2-6-8-5-4-1z" fill="#EAA180"/>
<path transform="translate(214,566)" d="m0 0 2 2v8l-5 8-2-1v-3h2l2-13z" fill="#C08B75"/>
<path transform="translate(218,439)" d="m0 0 3 4 1 5-5 1-2-3v-5z" fill="#F7DCCB"/>
<path transform="translate(509,415)" d="m0 0 1 2-5 13-3 3 1-5 2-11z" fill="#EFA581"/>
<path transform="translate(319,399)" d="m0 0 9 1 8 5v1h-8l-4-4-5-2z" fill="#B67A63"/>
<path transform="translate(239,442)" d="m0 0 5 2 4 5-1 4-8-6z" fill="#F9F3F0"/>
<path transform="translate(517,599)" d="m0 0 4 2 3 5 3 4v2l-4-2-6-7h-2v-3z" fill="#F2A787"/>
<path transform="translate(1878,440)" d="m0 0 1 2 6 2-5 5-6-3z" fill="#FE908F"/>
<path transform="translate(160,546)" d="m0 0h11l1 5-7 1-1-4z" fill="#AF745E"/>
<path transform="translate(193,538)" d="m0 0 7 1 1 7-1-2-4 2-3-6z" fill="#F7B3AF"/>
<path transform="translate(357,499)" d="m0 0 5 1 7 4v3l-6-1-5-4z" fill="#8D3718"/>
<path transform="translate(542,469)" d="m0 0h2l-2 9-7 8-2-3 4-4h2l1-4z" fill="#FFB4A5"/>
<path transform="translate(240,666)" d="m0 0 3 1h-2l-1 3-5 4-2-1 1-2h-3l2-4z" fill="#71473D"/>
<path transform="translate(263,618)" d="m0 0 6 2 2 2v4l-5-1-3-2z" fill="#FCD0B4"/>
<path transform="translate(553,653)" d="m0 0 2 1 2 5-1 5-4 3-4-1 5-1z" fill="#71473D"/>
<path transform="translate(265,416)" d="m0 0 4 2 2 10 1 4-4-4-3-8z" fill="#F0A580"/>
<path transform="translate(330,378)" d="m0 0 7 2 5 5-1 3-8-6-3-3z" fill="#D4945D"/>
<path transform="translate(473,596)" d="m0 0 3 1 3 8-1 4-3-9-4 2-1-4z" fill="#FFB7B6"/>
<path transform="translate(553,570)" d="m0 0h2l-1 7-3 1-6-3 3-3z" fill="#FEBEA2"/>
<path transform="translate(182,558)" d="m0 0 4 1-6 2h-2v3l-9 3-1-2 5-1v-4z" fill="#BC601B"/>
<path transform="translate(974,491)" d="m0 0 1 2h5l1 3-1 4-6-1zm4 5-1 3h2z" fill="#FF8383"/>
<path transform="translate(442,381)" d="m0 0 2 1-10 9-6 5 2-5 8-8z" fill="#4A2E27"/>
<path transform="translate(519,245)" d="m0 0 7 5-1 7-3-3-3-6z" fill="#7B4C3E"/>
<path transform="translate(186,666)" d="m0 0 4 2-6 3h-7l-2-1 1-3h8z" fill="#805345"/>
<path transform="translate(484,613)" d="m0 0 2 4-1 7h2l-1 9h3l-1 2-3-1-2-10z" fill="#BC601B"/>
<path transform="translate(524,578)" d="m0 0 4 2 1 4-5 2h-3l3-4-4-1z" fill="#FFBAA2"/>
<path transform="translate(1727,443)" d="m0 0h5l-1 9h-4z" fill="#FE6261"/>
<path transform="translate(237,459)" d="m0 0 5 5 2 5h-3l-4-1z" fill="#F1A580"/>
<path transform="translate(267,651)" d="m0 0 12 6-3 2-10-4v-3z" fill="#332A25"/>
<path transform="translate(227,615)" d="m0 0 2 1-3 6-1 6-2-2-1 3h-3v-3l4-4z" fill="#C9957D"/>
<path transform="translate(420,493)" d="m0 0h4l-1 3-7 1-9 2-3-2z" fill="#885A4A"/>
<path transform="translate(563,267)" d="m0 0 3 2 7 18-1 3-8-19z" fill="#A54612"/>
<path transform="translate(468,623)" d="m0 0 1 3 4-1-1 7h-4l-1-5z" fill="#AE735C"/>
<path transform="translate(498,599)" d="m0 0h2l-1 5-5 3-3-4 1-3 1 2 4-2z" fill="#FFB29C"/>
<path transform="translate(1603,444)" d="m0 0 4 2 1 6-2 4-2 1zm1 2 1 4z" fill="#FF9494"/>
<path transform="translate(1902,404)" d="m0 0 6 4-3 1-1 20h-1z" fill="#FE9B98"/>
<path transform="translate(226,241)" d="m0 0m-2 1 2 1-8 9-8 6 2-4z" fill="#6B4339"/>
<path transform="translate(589,650)" d="m0 0h1v7l-4 6-4 1 2-4 3-5h2z" fill="#895B4D"/>
<path transform="translate(500,626)" d="m0 0 10 6v6l-10-10z" fill="#B47861"/>
<path transform="translate(490,625)" d="m0 0h4l7 3 1 2h-7l-5-2z" fill="#76493C"/>
<path transform="translate(205,587)" d="m0 0 2 1-1 7-3 3v-2h-2l-1 2 1-5z" fill="#DB9A7C"/>
<path transform="translate(179,578)" d="m0 0 1 2-3 9-4 1 2-6z" fill="#B67A63"/>
<path transform="translate(523,469)" d="m0 0 2 4 2 10-4 2z" fill="#F17C70"/>
<path transform="translate(537,447)" d="m0 0 6 1-2 4-10-2 2-2z" fill="#FEB39B"/>
<path transform="translate(384,305)" d="m0 0 5 1-2 2-11 3-4-1z" fill="#713F2F"/>
<path transform="translate(498,461)" d="m0 0 5 1-1 4-4 1-2-4z" fill="#FEFEFE"/>
<path transform="translate(541,665)" d="m0 0 7 1 5 2v1h-8l-4-2z" fill="#825244"/>
<path transform="translate(173,656)" d="m0 0 4 1 1 5-4 1-2-2z" fill="#C4937D"/>
<path transform="translate(200,561)" d="m0 0 7 1 2 2v3l-4 1v-3l-4-2z" fill="#FEBDA2"/>
<path transform="translate(570,554)" d="m0 0h5l1 2-10 5 1-4z" fill="#DAB29F"/>
<path transform="translate(155,548)" d="m0 0 4 1v3l-3 3-3-2 1-4z" fill="#F1A580"/>
<path transform="translate(436,486)" d="m0 0 5 2 2 2-5 4h-3z" fill="#EFA586"/>
<path transform="translate(1501,478)" d="m0 0 8 1 1 4h-6l-3-3z" fill="#FE6665"/>
<path transform="translate(1742,444)" d="m0 0 5 3 1 5-6-1z" fill="#FE6E6E"/>
<path transform="translate(273,425)" d="m0 0h1l3 13-1 3-4-9v-6z" fill="#FDD2B6"/>
<path transform="translate(1798,405)" d="m0 0 10 3 7 2-1 3-11-4-5-3z" fill="#FE8381"/>
<path transform="translate(342,386)" d="m0 0 4 4 4 8h-3l-6-9z" fill="#F0A680"/>
<path transform="translate(273,351)" d="m0 0 1 2h2l-2 5-5 1 2-5z" fill="#853918"/>
<path transform="translate(548,256)" d="m0 0 4 5 5 10-1 2-7-11-1-1z" fill="#70453A"/>
<path transform="translate(575,656)" d="m0 0 5 2v3l-4 1-3-2v-3z" fill="#C4937D"/>
<path transform="translate(520,582)" d="m0 0h4l-2 4-2 2-4-1 2-4z" fill="#FDD2B6"/>
<path transform="translate(212,563)" d="m0 0 2 1-1 12-3 4-1-2 2-7z" fill="#EDA27E"/>
<path transform="translate(1301,478)" d="m0 0 10 1v3l-1 1h-5l-4-4z" fill="#FE8282"/>
<path transform="translate(467,636)" d="m0 0 3 1 1 4-4 2-2-1 1-5z" fill="#F1A580"/>
<path transform="translate(242,594)" d="m0 0m-1 1 5 1v2h-2l-2 4v-2l-4 2 2-6z" fill="#FFB4A6"/>
<path transform="translate(539,578)" d="m0 0 4 2 3 5h-3-2v-2l-3-1z" fill="#EBA383"/>
<path transform="translate(199,561)" d="m0 0 6 4-1 3-4-1-3-2v-3z" fill="#FFB29C"/>
<path transform="translate(580,552)" d="m0 0h12l2 3h-7l-7-2z" fill="#97614E"/>
<path transform="translate(272,461)" d="m0 0 5 1-1 5-4-1-1-3z" fill="#FEFEFE"/>
<path transform="translate(513,400)" d="m0 0 2 1-4 6-2 2-3-1 4-4-4-2z" fill="#402924"/>
<path transform="translate(345,184)" d="m0 0h5v3h-12v-2z" fill="#70453A"/>
<path transform="translate(607,563)" d="m0 0 2 1-7 8h-2v-4z" fill="#2A2420"/>
<path transform="translate(1314,491)" d="m0 0h3l-2 6 5 1v1h-6l-2-2 1-5z" fill="#FE6E6E"/>
<path transform="translate(211,635)" d="m0 0v3l-5 7-3-1 2-4z" fill="#7D4D3F"/>
<path transform="translate(220,570)" d="m0 0 2 1v4l-6 1v-4z" fill="#F4C7B2"/>
<path transform="translate(198,544)" d="m0 0h2v2l3 1-2 2v-2l-6 4-3-1z" fill="#C6947E"/>
<path transform="translate(593,560)" d="m0 0 10 4v1l-7-1 1 4-3-3z" fill="#73483D"/>
<path transform="translate(895,482)" d="m0 0h10v1h-10z" fill="#FF8383"/>
<path transform="translate(1444,368)" d="m0 0 1 3-2-1z" fill="#FF8383"/>
<path transform="translate(768,482)" d="m0 0 2 1z" fill="#FF8383"/>
<path transform="translate(892,481)" d="m0 0 2 1z" fill="#FF8383"/>
<path transform="translate(1638,480)" d="m0 0 2 1z" fill="#FF8383"/>
<path transform="translate(1113,395)" d="m0 0" fill="#FF8383"/>
<path transform="translate(1112,393)" d="m0 0" fill="#FF8383"/>
<path transform="translate(1447,375)" d="m0 0" fill="#FF8383"/>
<path transform="translate(1446,373)" d="m0 0" fill="#FF8383"/>
<path transform="translate(1445,371)" d="m0 0" fill="#FF8383"/>
<path transform="translate(1100,368)" d="m0 0" fill="#FF8383"/>
<path transform="translate(1443,366)" d="m0 0" fill="#FF8383"/>
<path transform="translate(1099,366)" d="m0 0" fill="#FF8383"/>
<path transform="translate(1098,363)" d="m0 0" fill="#FF8383"/>
<path transform="translate(1441,362)" d="m0 0" fill="#FF8383"/>
<path transform="translate(1097,361)" d="m0 0" fill="#FF8383"/>
<path transform="translate(1096,359)" d="m0 0" fill="#FF8383"/>
<path transform="translate(1095,357)" d="m0 0" fill="#FF8383"/>
<path transform="translate(1091,348)" d="m0 0" fill="#FF8383"/>
<path transform="translate(1085,335)" d="m0 0" fill="#FF8383"/>
<path transform="translate(1428,334)" d="m0 0" fill="#FF8383"/>
<path transform="translate(1084,333)" d="m0 0" fill="#FF8383"/>
<path transform="translate(1426,330)" d="m0 0" fill="#FF8383"/>
<path transform="translate(1082,329)" d="m0 0" fill="#FF8383"/>
<path transform="translate(1425,328)" d="m0 0" fill="#FF8383"/>
<path transform="translate(1446,497)" d="m0 0" fill="#FF8383"/>
<path transform="translate(909,497)" d="m0 0" fill="#FF8383"/>
<path transform="translate(1445,496)" d="m0 0" fill="#FF8383"/>
<path transform="translate(1519,492)" d="m0 0" fill="#FF8383"/>
<path transform="translate(909,492)" d="m0 0" fill="#FF8383"/>
<path transform="translate(770,480)" d="m0 0" fill="#FF8383"/>
<path transform="translate(1761,463)" d="m0 0" fill="#FF8383"/>
<path transform="translate(1757,463)" d="m0 0" fill="#FF8383"/>
<path transform="translate(1782,462)" d="m0 0" fill="#FF8383"/>
<path transform="translate(1619,462)" d="m0 0" fill="#FF8383"/>
<path transform="translate(1781,461)" d="m0 0" fill="#FF8383"/>
<path transform="translate(1780,460)" d="m0 0" fill="#FF8383"/>
<path transform="translate(1803,418)" d="m0 0" fill="#FF8383"/>
<path transform="translate(1180,418)" d="m0 0" fill="#FF8383"/>
<path transform="translate(1282,406)" d="m0 0" fill="#FF8383"/>
<path transform="translate(1905,405)" d="m0 0" fill="#FF8383"/>
<path transform="translate(1753,392)" d="m0 0" fill="#FF8383"/>
<path transform="translate(1749,392)" d="m0 0" fill="#FF8383"/>
<path transform="translate(1442,368)" d="m0 0" fill="#FF8383"/>
<path transform="translate(1098,368)" d="m0 0" fill="#FF8383"/>
<path transform="translate(1093,353)" d="m0 0" fill="#FF8383"/>
<path transform="translate(1436,352)" d="m0 0" fill="#FF8383"/>
<path transform="translate(1092,351)" d="m0 0" fill="#FF8383"/>
<path transform="translate(1435,349)" d="m0 0" fill="#FF8383"/>
<path transform="translate(1434,347)" d="m0 0" fill="#FF8383"/>
<path transform="translate(1433,345)" d="m0 0" fill="#FF8383"/>
<path transform="translate(1432,343)" d="m0 0" fill="#FF8383"/>
<path transform="translate(1911,341)" d="m0 0" fill="#FF8383"/>
<path transform="translate(1431,341)" d="m0 0" fill="#FF8383"/>
<path transform="translate(1910,340)" d="m0 0" fill="#FF8383"/>
<path transform="translate(1430,339)" d="m0 0" fill="#FF8383"/>
<path transform="translate(1086,338)" d="m0 0" fill="#FF8383"/>
<path transform="translate(1429,337)" d="m0 0" fill="#FF8383"/>
<path transform="translate(1427,332)" d="m0 0" fill="#FF8383"/>
<path transform="translate(1083,331)" d="m0 0" fill="#FF8383"/>
<path transform="translate(1081,328)" d="m0 0" fill="#FF8383"/>
<path transform="translate(943,328)" d="m0 0" fill="#FF8383"/>
<path transform="translate(1424,327)" d="m0 0" fill="#FF8383"/>
<path transform="translate(948,327)" d="m0 0" fill="#FF8383"/>
<path transform="translate(1423,326)" d="m0 0" fill="#FF8383"/>
<path transform="translate(1080,326)" d="m0 0" fill="#FF8383"/>
<path transform="translate(947,326)" d="m0 0" fill="#FF8383"/>
<path transform="translate(944,326)" d="m0 0" fill="#FF8383"/>
<path transform="translate(1422,325)" d="m0 0" fill="#FF8383"/>
<path transform="translate(1079,325)" d="m0 0" fill="#FF8383"/>
<path transform="translate(1421,324)" d="m0 0" fill="#FF8383"/>
<path transform="translate(1077,324)" d="m0 0" fill="#FF8383"/>
</svg>
